<?xml version="1.0" encoding="UTF-8" standalone="no"?>
<svg
   xmlns:dc="http://purl.org/dc/elements/1.1/"
   xmlns:cc="http://creativecommons.org/ns#"
   xmlns:rdf="http://www.w3.org/1999/02/22-rdf-syntax-ns#"
   xmlns:svg="http://www.w3.org/2000/svg"
   xmlns="http://www.w3.org/2000/svg"
   xmlns:sodipodi="http://sodipodi.sourceforge.net/DTD/sodipodi-0.dtd"
   xmlns:inkscape="http://www.inkscape.org/namespaces/inkscape"
   version="1.1"
   width="600px"
   height="600px"
   xlink="http://www.w3.org/1999/xlink"
   style="overflow:hidden!important;"
   id="svg189"
   sodipodi:docname="photo.svg"
   inkscape:version="1.0.2-2 (e86c870879, 2021-01-15)">
  <metadata
     id="metadata193">
    <rdf:RDF>
      <cc:Work
         rdf:about="">
        <dc:format>image/svg+xml</dc:format>
        <dc:type
           rdf:resource="http://purl.org/dc/dcmitype/StillImage" />
      </cc:Work>
    </rdf:RDF>
  </metadata>
  <sodipodi:namedview
     pagecolor="#ffffff"
     bordercolor="#666666"
     borderopacity="1"
     objecttolerance="10"
     gridtolerance="10"
     guidetolerance="10"
     inkscape:pageopacity="0"
     inkscape:pageshadow="2"
     inkscape:window-width="1366"
     inkscape:window-height="715"
     id="namedview191"
     showgrid="false"
     inkscape:zoom="0.91333333"
     inkscape:cx="300"
     inkscape:cy="135.97289"
     inkscape:window-x="-8"
     inkscape:window-y="-8"
     inkscape:window-maximized="1"
     inkscape:current-layer="svg189"
     inkscape:document-rotation="0" />
  <g
     id="svga-group-wrapper"
     transform="matrix(2.6755713,0,0,2.6755713,67.889282,67.889282)">
    <g
       id="svga-group-backs-single">
      <path
         id="SvgjsPath3668"
         d="M 225,225 H -25 V -25 h 250 z"
         fill="#ecf0f1"
         stroke-width="none"
         opacity="1" />
    </g>
    <g
       id="svga-group-subwrapper">
      <g
         id="svga-group-hair-back">
        <path
           id="SvgjsPath3654"
           d="m 160.527,108.896 c -0.826,32.13 -5.272,102.953 -58.469,102.589 -80.381,-0.551 -60.969,-69.5 -61.767,-102.589 -1.15,-47.67 26.917,-86.339 60.118,-86.339 33.202,0.001 61.344,38.672 60.118,86.339 z"
           fill="#0c080c"
           stroke-width="none"
           opacity="1" />
      </g>
      <g
         id="svga-group-humanbody-single">
        <path
           id="SvgjsPath2761"
           d="m 190.858,199.866 c -6.008,-10.158 -13.474,-11.973 -19.628,-13.936 -6.323,-2.016 -19.346,-3.178 -26.449,-4.6 -6.86,-1.373 -23.153,-5.789 -23.339,-13.488 -0.192,-8.066 4.291,-40.09 4.291,-40.09 H 74.005 c 0,0 4.487,32.023 4.294,40.09 -0.184,7.699 -16.48,12.115 -23.341,13.488 -7.104,1.422 -20.125,2.584 -26.448,4.6 -6.156,1.963 -13.624,3.777 -19.632,13.936 -3.644,6.16 -6.008,16.133 -6.008,27.133 h 194 c -0.001,-11 -2.361,-20.973 -6.012,-27.133 z"
           fill="#f2aa92"
           stroke-width="none"
           opacity="1"
           stroke="none" />
        <path
           id="SvgjsPath2762"
           d="m 121.442,167.843 c 2.495,10.929 18.165,13.698 26.293,15.325 21.909,4.379 33.772,5.134 42.297,19.539 2.903,4.916 5.459,15.864 5.962,24.153 1.835,0.291 0.531,-17.432 -5.136,-26.994 -9.742,-16.472 -29.089,-15.135 -46.077,-18.535 -6.86,-1.373 -23.153,-5.789 -23.339,-13.488 z m -42.884,0 c -0.186,7.699 -16.479,12.115 -23.339,13.488 -16.988,3.4 -36.335,2.063 -46.077,18.535 -5.667,9.563 -6.971,27.285 -5.136,26.994 0.503,-8.289 3.059,-19.237 5.962,-24.153 8.524,-14.405 20.388,-15.16 42.297,-19.539 8.128,-1.627 23.798,-4.397 26.293,-15.325 z"
           fill="#ffc6b3"
           stroke-width="none"
           opacity="1"
           stroke="none" />
        <path
           id="SvgjsPath2763"
           d="m 51.206,189.513 c 0,0 28.641,0.299 33.473,1.885 2.314,0.758 8.372,5.633 8.372,5.633 0,0 -6.556,-3.17 -8.658,-3.758 -4.883,-1.364 -33.187,-3.76 -33.187,-3.76 z m 48.589,10.486 c 2.053,-0.041 7.887,-3.799 7.887,-3.799 0,0 -5.574,2.059 -7.342,2.16 -1.491,0.086 -6.366,-1.238 -6.366,-1.238 0,0 4.138,2.91 5.821,2.877 z m 17.213,-7.242 c 6.75,-1.818 29.786,-3.23 29.786,-3.23 0,0 -23.791,-0.516 -30.51,1.725 -2.252,0.752 -7.562,5.16 -7.562,5.16 0,0 6.064,-3.058 8.286,-3.655 z"
           fill="#e38e72"
           stroke-width="none"
           opacity="1"
           stroke="none" />
        <path
           id="SvgjsPath2764"
           d="m 190.858,199.866 c -9.741,-16.471 -29.122,-15.142 -46.077,-18.535 -6.86,-1.373 -23.153,-5.789 -23.339,-13.488 -0.192,-8.066 4.291,-40.09 4.291,-40.09 H 74.005 c 0,0 4.487,32.023 4.294,40.09 -0.184,7.699 -16.48,12.115 -23.341,13.488 -7.104,1.422 -20.125,2.584 -26.448,4.6 -6.156,1.963 -13.624,3.777 -19.632,13.936 C 5.234,206.027 2.87,216 2.87,227 h 194 c -0.001,-11.001 -2.361,-20.974 -6.012,-27.134 z"
           fill="none"
           stroke="#c45e3b"
           stroke-width="1.5"
           opacity="1" />
      </g>
      <g
         id="svga-group-chinshadow-single">
        <path
           id="SvgjsPath4259"
           d="m 74.767,128.517 c 0.63,4.561 3.424,25.109 4.058,35.365 4.747,3.863 11.162,7.168 21.177,7.121 9.822,0.046 16.18,-3.132 20.899,-6.899 0.607,-10.183 3.436,-30.995 4.069,-35.587 l 0.017,-0.113 H 74.751 Z"
           fill="url(#SvgjsLinearGradient4260)"
           opacity="1"
           style="fill:url(#SvgjsLinearGradient4260)" />
      </g>
      <g
         id="svga-group-clothes-single">
        <path
           id="SvgjsPath3664"
           d="m 93.589,228.292 c -8.632,0 -18.516,-0.143 -30.217,-0.437 -5.24,-0.133 -10.38,-0.197 -15.713,-0.197 -8.082,0 -15.041,0.146 -21.771,0.288 -5.62,0.118 -10.929,0.229 -16.081,0.229 -4.201,0 -7.974,-0.075 -11.533,-0.23 l -0.612,-0.026 -0.023,-0.281 c -0.55,-6.277 -0.329,-11.201 0.657,-14.635 2.739,-9.57 11.779,-22.221 13.349,-22.804 17.165,-5.583 22.101,-5.852 26.671,-6.81 1.788,-0.086 3.637,-0.176 6.081,-0.586 1.753,-0.305 3.492,-1.017 5.174,-1.705 2.067,-0.846 4.019,-1.645 5.835,-1.645 0.592,0 1.129,0.084 1.643,0.256 0.212,0.077 0.427,0.165 0.632,0.282 l -0.024,0.12 0.026,0.198 c 0.479,4.203 0.973,7.772 1.408,10.921 l 0.011,0.079 0.081,0.015 c 11.784,1.007 26.305,2.259 40.89,2.259 14.972,0 29.065,-1.255 40.758,-2.309 l 0.079,-0.007 0.011,-0.079 c 0.422,-3.005 0.913,-6.566 1.4,-10.813 l 0.061,-0.52 c 0.146,-0.037 0.349,-0.126 0.57,-0.196 0.488,-0.163 0.997,-0.242 1.557,-0.242 1.702,0 3.576,0.752 5.561,1.547 1.637,0.656 3.33,1.336 5.133,1.697 1.221,0.247 2.486,0.299 3.71,0.349 0.322,0.014 0.645,0.026 0.965,0.043 11.05,1.62 12.476,1.811 27.626,6.813 0.092,0.038 0.205,0.077 0.328,0.119 0.38,0.13 0.9,0.308 1.043,0.567 1.617,2.864 3.238,5.418 4.806,7.889 5.13,8.081 9.56,15.062 10.143,27.528 0.008,0.11 0.015,0.203 0.019,0.295 h -0.778 c -40.024,0.014 -59.705,0.721 -75.52,1.289 -11.024,0.397 -20.54,0.739 -33.956,0.739 z"
           fill="#1e78a2"
           stroke-width="none"
           opacity="1" />
        <path
           id="SvgjsPath3665"
           d="m 203.838,226.266 c -0.296,0 -0.61,0 -0.906,0.001 -3.369,-15.058 -15.396,-31.068 -18.229,-32.479 -9.956,-4.956 -30.352,-7.399 -40.493,-11.396 -0.742,12.815 -3.105,19.729 -4.671,34.673 -1.357,-7.705 2.116,-31.016 2.697,-35.99 0.027,-0.233 0.143,-1.218 0.143,-1.218 1.688,-0.431 2.109,-1.127 7.688,1.108 4.488,1.8 5.622,1.925 8.843,2.046 13.716,0.514 15.933,3.408 28.591,6.855 2.022,0.551 0.082,-1.032 6.177,8.575 5.205,8.202 9.623,15.195 10.16,27.825 z m -207.676,0 c 0.296,0 0.61,0 0.906,0.001 3.369,-15.058 15.396,-31.068 18.229,-32.479 9.956,-4.956 30.256,-7.399 40.397,-11.396 0.742,12.815 3.201,19.729 4.767,34.673 1.357,-7.705 -2.116,-31.016 -2.697,-35.99 -0.027,-0.233 -0.143,-1.218 -0.143,-1.218 -1.688,-0.431 -2.109,-1.127 -7.688,1.108 -4.488,1.8 -5.622,1.915 -8.843,2.046 -11.774,1.875 -13.637,2.176 -28.591,6.855 -1.936,0.804 -0.082,-1.032 -6.177,8.575 -5.205,8.202 -9.623,15.195 -10.16,27.825 z"
           fill="#3389b1"
           stroke-width="none"
           opacity="1" />
        <path
           id="SvgjsPath3666"
           d="m 100.071,195.291 c -14.397,0 -28.77,-0.943 -40.47,-1.926 -0.103,-1.298 0.002,0.355 -0.45,-1.647 l 0.131,0.019 c 12.446,1.671 26.582,2.555 40.878,2.555 0.001,0 0.003,0 0.004,0 14.571,0 28.595,-0.894 40.561,-2.584 l 0.132,-0.02 -0.02,0.133 c -0.122,0.829 -0.229,1.131 -0.329,1.91 -12.239,1.007 -39.437,1.56 -40.437,1.56 z m 40.034,2.015 c 0.098,-0.799 0.199,-1.606 0.313,-2.437 l 0.019,-0.131 -0.131,0.019 c -11.884,1.659 -25.772,2.536 -40.166,2.536 -14.12,0 -28.104,-0.866 -40.438,-2.507 l -0.13,-0.017 0.018,0.13 c 0.104,0.76 0.199,1.503 0.289,2.238 26.742,1.949 48.289,3.023 80.226,0.169 z"
           fill="#0c6893"
           stroke-width="none"
           opacity="1" />
        <path
           id="SvgjsPath3667"
           d="m 203.919,225.966 c -0.76,-16.261 -7.99,-23.11 -14.96,-35.461 -0.21,-0.38 -1.019,-0.603 -1.42,-0.729 -12.39,-3.909 -15.91,-6.21 -27.66,-6.82 -1.55,-0.08 -3.13,-0.08 -4.66,-0.39 -4.729,-0.95 -8.85,-4.15 -12.3,-3 -0.22,0.07 -0.43,0.16 -0.64,0.28 -0.021,0.18 -0.04,0.35 -0.061,0.52 -0.479,4.18 -0.96,7.68 -1.399,10.811 -24.459,2.949 -57.911,2.638 -81.63,0.05 -0.44,-3.181 -0.93,-6.721 -1.41,-10.931 -0.02,-0.13 -0.03,-0.26 -0.05,-0.39 -0.21,-0.12 -0.43,-0.21 -0.65,-0.29 -3.7,-1.24 -8.16,1.901 -12.7,2.691 -8.426,1.466 -8.81,-0.086 -32.77,7.799 -1.67,0.62 -10.74,13.54 -13.41,22.87 -1.16,4.04 -1.11,9.54 -0.66,14.67 0.01,0.13 0.02,0.25 0.03,0.37 0.24,0.01 0.47,0.02 0.7,0.029 18.55,0.811 35.87,-0.829 65.1,-0.09 62.13,1.561 54.81,-1.56 139.69,-1.59 0.29,0 0.59,0 0.88,0 0,-0.139 -0.01,-0.269 -0.02,-0.399 z m -63.18,-34.16 c -0.12,0.83 -0.23,1.63 -0.33,2.41 -26.396,2.747 -55.546,2.747 -80.8,0.05 -0.11,-0.79 -0.22,-1.601 -0.34,-2.431 26.88,3.61 58.55,3.21 81.47,-0.029 z m -0.9,6.889 c -23.66,2.05 -55.979,1.99 -79.67,0.04 -0.14,-1.25 -0.3,-2.53 -0.48,-3.85 26.63,3.54 57.86,3.149 80.63,-0.03 -0.18,1.321 -0.34,2.6 -0.48,3.84 z m 32.931,26.64 c -6.54,0.07 -13.091,0.131 -19.631,0.21 -14.439,0.171 -40.329,1.511 -49.81,1.521 -43.15,0.09 -33.54,-0.41 -52.82,-0.49 -19.22,-0.04 -34.91,1.53 -52.25,1.09 -0.1,-7.37 0.5,-12.37 2.95,-17.479 3.34,-6.91 6.22,-12.351 11.11,-18.22 0.14,-0.16 0.4,-0.2 0.59,-0.271 5.14,-1.9 11.21,-4.22 17.85,-5.69 8.16,-1.81 12.65,-1.109 17.87,-3.46 3.45,-1.55 6.08,-3.189 8.45,-2.51 0.06,4.23 0.32,7.69 0.68,11.07 0.02,0.18 0.04,0.35 0.06,0.53 0.09,0.83 0.19,1.659 0.3,2.5 0.02,0.189 0.04,0.369 0.06,0.55 0.16,1.28 0.33,2.569 0.5,3.93 0.03,0.19 0.06,0.38 0.08,0.58 0.6,4.72 1.24,10.19 1.7,17.87 0.57,-7.17 0.36,-12.3 -0.21,-17.67 26.29,3.42 56.96,3.05 79.521,-0.03 -0.601,5.4 -0.801,10.49 -0.23,17.7 0.46,-7.55 1.12,-13.061 1.73,-17.91 0.02,-0.2 0.05,-0.4 0.069,-0.59 0.17,-1.35 0.34,-2.64 0.5,-3.92 0.021,-0.19 0.04,-0.38 0.061,-0.57 0.1,-0.83 0.2,-1.66 0.279,-2.49 0.03,-0.18 0.051,-0.359 0.061,-0.54 0.36,-3.369 0.62,-6.84 0.67,-10.96 3.87,-1.17 8.32,3.391 14.25,4.021 5.85,0.63 11.84,1.457 17.47,3.308 4.15,1.359 11.21,3.362 12.891,4.372 0.34,0.21 0.77,1.49 0.96,1.891 4.87,9.71 12.439,15.149 14.52,32.26 -24.941,-0.623 -25.472,-0.653 -30.231,-0.603 z"
           fill="#004f74"
           stroke-width="none"
           opacity="1" />
      </g>
      <g
         id="svga-group-head">
        <g
           id="svga-group-ears-left"
           style="display:none">
          <path
             id="SvgjsPath3669"
             d="m 45.671,83.846 c -1.485,-2.408 -6.327,-8.995 -10.031,-8.071 -3.012,0.755 -2.973,4.861 -3.206,7.289 -0.34,3.563 -0.464,9.771 0.525,12.29 0.951,2.418 3.96,7.092 5.828,8.874 2.299,2.185 5.97,9.15 6.422,9.872 0.711,1.142 2.137,2.776 4.325,2.647 3.071,-0.181 5.724,-3.018 5.965,-4.386 1.301,-7.42 -5.963,-22.251 -9.828,-28.515 z"
             fill="#f2aa92"
             stroke="#c45e3b"
             stroke-width="1.5"
             opacity="1" />
          <path
             id="SvgjsPath3670"
             d="m 44.2,98.511 c -0.143,-0.55 0.007,-1.479 0.154,-2.375 0.133,-0.817 0.258,-1.588 0.182,-2.134 -0.289,-2.043 -1.915,-5.926 -2.976,-8.03 -1.223,-2.421 -3.199,-5.471 -5.679,-6.257 -1.024,-0.326 -1.699,0.063 -2.089,0.458 -0.288,0.29 -0.353,0.63 -0.259,0.671 0.095,0.04 0.307,-0.242 0.617,-0.508 0.254,-0.217 -0.508,-0.039 0,0 -0.205,1.017 -0.865,6.162 -0.41,9.918 0.358,2.955 1.05,5.162 1.263,5.492 0.031,0.349 0.083,0.689 0.16,1.02 1.002,4.312 7.518,9.95 9.034,11.557 0.28,0.296 0.574,0.473 0.646,0.4 0.072,-0.073 -0.101,-0.365 -0.379,-0.664 -1.498,-1.595 -7.971,-7.214 -8.939,-11.375 -1.027,-4.414 3.912,-10.958 4.699,-12.343 0.401,0.65 0.742,1.274 1.004,1.795 0.207,0.408 0.434,0.886 0.67,1.403 -0.463,0.721 -5.118,5.992 -3.934,10.21 0.438,1.556 3.822,3.561 5.131,4.11 0.72,0.303 0.99,0.754 1.304,1.277 0.364,0.608 0.033,2.179 1.23,2.677 0.244,0.103 0.464,0.144 0.659,0.144 0.338,0 0.594,-0.127 0.783,-0.278 0.02,0.266 0.019,0.605 0.009,0.921 -0.012,0.407 0.047,0.596 0.148,0.604 0.103,0.008 0.21,-0.17 0.223,-0.574 0.017,-0.5 0.014,-1.116 -0.077,-1.412 -0.269,-0.868 -1.088,-1.851 -1.957,-2.89 -0.854,-1.024 -0.995,-2.964 -1.217,-3.817 z m -9.231,-3.823 c -2.348,-6.77 1.283,-12.936 1.81,-13.865 1.012,0.39 2.562,2.145 3.221,3.163 -0.48,0.816 -4.933,6.149 -5.031,10.702 z m 10.803,10.787 c -1.084,-0.451 -0.706,-1.939 -1.056,-2.525 -0.318,-0.531 -0.646,-1.078 -1.479,-1.429 -0.18,-0.076 -0.379,-0.191 -0.583,-0.325 -2.682,-5.939 0.293,-8.537 1.039,-9.068 0.229,0.726 0.399,1.392 0.476,1.926 0.068,0.49 -0.059,1.27 -0.181,2.023 -0.153,0.934 -0.31,1.901 -0.147,2.526 0.244,0.931 0.411,2.904 1.291,3.958 0.781,0.935 1.583,1.899 1.857,2.685 -0.118,0.157 -0.489,0.532 -1.217,0.229 z"
             fill="#c45e3b"
             stroke-width="none"
             opacity="1"
             stroke="none" />
        </g>
        <g
           id="svga-group-ears-right"
           style="display:none">
          <path
             id="SvgjsPath3671"
             d="m 154.066,83.846 c 1.486,-2.408 6.328,-8.995 10.031,-8.071 3.012,0.755 2.973,4.861 3.207,7.289 0.34,3.563 0.463,9.771 -0.525,12.29 -0.951,2.418 -3.961,7.092 -5.828,8.874 -2.299,2.185 -5.971,9.15 -6.422,9.872 -0.711,1.142 -2.137,2.776 -4.326,2.647 -3.07,-0.181 -5.723,-3.018 -5.965,-4.386 -1.3,-7.42 5.965,-22.251 9.828,-28.515 z"
             fill="#f2aa92"
             stroke="#c45e3b"
             stroke-width="1.5"
             opacity="1" />
          <path
             id="SvgjsPath3672"
             d="m 154.322,102.327 c -0.869,1.039 -1.688,2.022 -1.957,2.89 -0.092,0.296 -0.094,0.912 -0.078,1.412 0.014,0.404 0.121,0.582 0.225,0.574 0.102,-0.008 0.16,-0.196 0.148,-0.604 -0.01,-0.315 -0.012,-0.655 0.008,-0.921 0.189,0.151 0.445,0.278 0.783,0.278 0.195,0 0.416,-0.041 0.66,-0.144 1.195,-0.498 0.865,-2.068 1.229,-2.677 0.314,-0.523 0.584,-0.975 1.305,-1.277 1.309,-0.549 4.693,-2.554 5.131,-4.11 1.184,-4.218 -3.471,-9.489 -3.934,-10.21 0.234,-0.517 0.463,-0.995 0.668,-1.403 0.264,-0.521 0.604,-1.145 1.006,-1.795 0.787,1.384 5.725,7.929 4.699,12.343 -0.969,4.161 -7.441,9.781 -8.939,11.375 -0.279,0.299 -0.453,0.591 -0.381,0.664 0.074,0.072 0.367,-0.104 0.646,-0.4 1.516,-1.606 8.031,-7.245 9.033,-11.557 0.078,-0.33 0.131,-0.671 0.162,-1.02 0.211,-0.331 0.904,-2.537 1.262,-5.492 0.455,-3.756 -0.205,-8.901 -0.41,-9.918 0.508,-0.039 -0.254,-0.217 0,0 0.311,0.266 0.523,0.548 0.617,0.508 0.094,-0.041 0.029,-0.381 -0.258,-0.671 -0.391,-0.394 -1.066,-0.784 -2.09,-0.458 -2.48,0.786 -4.457,3.836 -5.68,6.257 -1.061,2.104 -2.686,5.987 -2.975,8.03 -0.076,0.546 0.049,1.317 0.182,2.134 0.146,0.896 0.297,1.824 0.154,2.375 -0.222,0.854 -0.362,2.794 -1.216,3.817 z m 5.416,-18.34 c 0.66,-1.019 2.209,-2.773 3.221,-3.163 0.527,0.929 4.158,7.095 1.811,13.865 -0.098,-4.554 -4.551,-9.887 -5.032,-10.702 z m -6.988,21.259 c 0.273,-0.785 1.076,-1.75 1.857,-2.685 0.879,-1.053 1.047,-3.026 1.291,-3.958 0.162,-0.625 0.006,-1.592 -0.146,-2.526 -0.123,-0.754 -0.25,-1.534 -0.182,-2.023 0.076,-0.535 0.246,-1.201 0.475,-1.926 0.746,0.531 3.721,3.128 1.039,9.068 -0.203,0.133 -0.402,0.249 -0.584,0.325 -0.832,0.351 -1.16,0.898 -1.479,1.429 -0.35,0.586 0.029,2.074 -1.055,2.525 -0.728,0.303 -1.099,-0.072 -1.216,-0.229 z"
             fill="#c45e3b"
             stroke-width="none"
             opacity="1"
             stroke="none" />
        </g>
        <g
           id="svga-group-faceshape-wrap">
          <g
             id="svga-group-faceshape-single">
            <path
               id="SvgjsPath4256"
               d="M 100.002,0.867 C 66.384,0.919 39.082,28.09 39.134,61.564 c 0.009,5.316 0.704,10.471 2.002,15.382 h 10e-4 c 0.013,0.054 10.29,30.927 12.949,43.344 2.38,11.116 12.959,20.132 17.72,25.046 5.47,5.649 12.307,14.008 28.197,13.934 15.889,0.074 22.727,-8.284 28.197,-13.934 4.761,-4.914 15.34,-13.93 17.72,-25.046 2.659,-12.417 12.937,-43.291 12.947,-43.344 h 0.002 c 1.298,-4.911 1.994,-10.066 2.002,-15.382 C 160.923,28.09 133.62,0.919 100.002,0.867 Z"
               fill="#f2aa92"
               stroke-width="none"
               opacity="1" />
            <path
               id="SvgjsPath4257"
               d="m 133.47,10.898 c 14.604,11.017 24.131,29.011 24.1,49.346 -0.008,5.315 -0.664,10.471 -1.892,15.382 h -0.002 c -0.011,0.053 -9.73,30.925 -12.246,43.342 -2.251,11.117 -12.256,20.132 -16.76,25.047 -5.173,5.649 -11.64,14.008 -26.667,13.934 C 84.975,158.023 78.508,149.665 73.335,144.015 68.833,139.1 58.827,130.085 56.576,118.968 54.06,106.552 44.34,75.68 44.329,75.626 H 44.328 C 43.1,70.715 42.443,65.56 42.435,60.244 42.405,39.909 51.932,21.914 66.536,10.898 50.014,21.761 39.103,40.397 39.136,61.564 c 0.009,5.316 0.704,10.471 2.002,15.382 h 0.001 c 0.011,0.054 10.288,30.927 12.947,43.344 2.38,11.116 12.959,20.132 17.72,25.046 5.47,5.649 12.307,14.008 28.197,13.934 15.889,0.074 22.727,-8.284 28.197,-13.934 4.761,-4.914 15.34,-13.93 17.72,-25.046 2.659,-12.417 12.937,-43.291 12.947,-43.344 h 0.002 c 1.298,-4.911 1.994,-10.066 2.002,-15.382 0.032,-21.166 -10.879,-39.802 -27.401,-50.666 z"
               fill="#ea9c82"
               stroke-width="none"
               opacity="1" />
            <path
               id="SvgjsPath4258"
               d="M 100.002,0.867 C 66.384,0.919 39.082,28.09 39.134,61.564 c 0.009,5.316 0.704,10.471 2.002,15.382 h 10e-4 c 0.013,0.054 10.29,30.927 12.949,43.344 2.38,11.116 12.959,20.132 17.72,25.046 5.47,5.649 12.307,14.008 28.197,13.934 15.889,0.074 22.727,-8.284 28.197,-13.934 4.761,-4.914 15.34,-13.93 17.72,-25.046 2.659,-12.417 12.937,-43.291 12.947,-43.344 h 0.002 c 1.298,-4.911 1.994,-10.066 2.002,-15.382 C 160.923,28.09 133.62,0.919 100.002,0.867 Z"
               fill="none"
               stroke="#c45e3b"
               stroke-width="1.5"
               opacity="1" />
          </g>
        </g>
        <g
           id="svga-group-mouth-single">
          <path
             id="SvgjsPath4321"
             d="m 100.002,141.248 c -4.158,0 -5.133,-3.404 -5.133,-3.404 5.5,2.12 10.267,-0.146 10.267,-0.146 0,0 -1.477,3.55 -5.134,3.55 z"
             fill="url(#SvgjsLinearGradient4322)"
             opacity="1"
             style="fill:url(#SvgjsLinearGradient4322)" />
          <path
             id="SvgjsPath4325"
             d="m 86.803,131.94 c 2.756,-0.951 6.973,-2.692 9.166,-2.789 1.133,-0.052 2.351,0.87 3.574,1.165 0.851,0.206 3.264,-1.156 4.13,-1.165 2.272,-0.024 7.06,1.838 9.502,2.789 0.135,0.054 0,0 0,0 0,0 -5.789,6.953 -13.185,6.953 -8.372,0.001 -13.187,-6.953 -13.187,-6.953 0,0 -0.137,0.049 0,0 z"
             fill="#f771a9"
             stroke="#e85391"
             stroke-width="0.75"
             opacity="1" />
          <path
             id="SvgjsPath4326"
             d="m 113.541,131.736 c -0.048,-0.164 -0.482,-0.367 -0.653,-0.359 -0.311,0.017 -0.672,0.396 -1.313,0.41 -0.742,0.018 -4.679,0.61 -5.736,0.54 -2.129,-0.142 -3.824,0.666 -5.848,0.666 -2.025,0 -3.868,-0.882 -5.996,-0.739 -1.057,0.072 -4.847,-0.448 -5.591,-0.467 -0.643,-0.015 -0.892,-0.411 -1.166,-0.464 -0.192,-0.036 -0.663,0.166 -0.757,0.338 -0.083,0.149 0.092,0.67 0.209,0.794 0.285,0.297 1.136,0.242 1.698,0.256 0.777,0.017 4.577,0.538 5.65,0.466 2.081,-0.141 3.936,0.822 5.952,0.822 2.016,0 3.725,-0.889 5.806,-0.748 1.071,0.071 5.015,-0.524 5.793,-0.54 0.563,-0.014 1.366,-0.061 1.654,-0.292 0.136,-0.108 0.347,-0.515 0.298,-0.683 z"
             fill="#c92066"
             stroke-width="none"
             opacity="1" />
          <path
             id="SvgjsPath4327"
             d="m 99.989,137.352 c -3.37,0 -6.645,-1.153 -9.241,-3.305 1.307,-0.072 2.652,-0.277 3.961,-0.22 1.613,0.07 3.144,0.707 4.756,0.813 1.742,0.116 3.358,-0.487 5.064,-0.694 1.422,-0.17 3.664,-0.674 5.091,-0.622 -2.552,1.956 -6.376,4.028 -9.631,4.028 z m 4.573,-5.613 c 1.314,-0.037 3.414,-0.532 4.724,-0.437 -1.405,-0.759 -3.657,-0.941 -5.243,-1.247 -1.366,-0.266 -2.738,0.791 -4.081,0.968 -1.514,0.199 -2.65,-1.239 -4.119,-1.288 -1.593,0.017 -3.233,0.991 -4.634,1.65 1.284,-0.034 2.607,-0.176 3.886,-0.012 1.566,0.199 3.069,0.817 4.655,0.87 1.623,0.056 3.189,-0.461 4.812,-0.504 z"
             fill="#ff8ebd"
             stroke-width="none"
             opacity="1" />
          <path
             id="SvgjsPath4328"
             d="m 99.941,136.4 c -2.029,0 -4.007,-0.702 -5.707,-2.002 0.38,-0.038 0.764,-0.067 1.133,-0.067 0.117,0 0.234,0.004 0.351,0.011 0.609,0.032 1.209,0.207 1.846,0.393 0.618,0.178 1.256,0.363 1.923,0.42 0.132,0.01 0.264,0.015 0.395,0.015 0.819,0 1.596,-0.204 2.348,-0.4 0.477,-0.125 0.928,-0.243 1.392,-0.313 0.253,-0.04 0.527,-0.059 0.837,-0.059 0.268,0 0.544,0.015 0.818,0.036 -1.415,1.051 -3.247,1.966 -5.336,1.966 z"
             fill="#ffa8cc"
             stroke-width="none"
             opacity="1" />
        </g>
        <g
           id="svga-group-eyes-left">
          <g
             id="svga-group-eyesback-left">
            <path
               id="SvgjsPath4198"
               d="m 79.063,92.229 c -4.31,0.755 -7.656,0.71 -10.688,-0.204 -3.127,-0.943 -7.188,-4.825 -8.596,-8.495 3.715,-0.277 11.349,-0.597 14.89,-0.154 4.688,0.586 9.474,2.406 12.305,5.236 -0.016,0.294 -0.053,0.583 -0.087,0.872 -2.285,1.547 -5.521,2.341 -7.824,2.745 z"
               fill="url(#SvgjsRadialGradient4199)"
               opacity="1"
               style="fill:url(#SvgjsRadialGradient4199)" />
          </g>
          <g
             id="svga-group-eyesiriswrapper-left"
             transform="translate(-1,0.5)">
            <g
               id="svga-group-eyesiriscontrol-left">
              <g
                 id="svga-group-eyesiris-left">
                <path
                   id="SvgjsPath3236"
                   d="m 83.5,87 c 0,4.694 -3.806,8.5 -8.499,8.5 C 70.307,95.5 66.5,91.694 66.5,87 v 0 c 0,-4.694 3.807,-8.5 8.501,-8.5 4.693,-0.001 8.499,3.805 8.499,8.5 z"
                   fill="#4d3623"
                   stroke-width="none"
                   opacity="1"
                   stroke="none" />
                <path
                   id="SvgjsPath3237"
                   d="m 74.048,78.595 c -0.033,0.004 -0.066,0.008 -0.101,0.012 0.041,0.191 0.081,0.384 0.12,0.575 -0.007,-0.195 -0.012,-0.393 -0.019,-0.587 z m 0.018,0.585 c 0.099,2.793 0.262,5.282 0.732,6.183 0.249,-0.986 -0.173,-3.443 -0.732,-6.183 z m 0.734,6.185 c -0.061,0.236 -0.153,0.397 -0.294,0.452 -0.142,0.053 -0.319,-0.008 -0.521,-0.146 0.058,0.236 0.052,0.422 -0.051,0.537 -0.102,0.114 -0.285,0.142 -0.527,0.11 0.16,0.184 0.242,0.353 0.206,0.5 -0.039,0.148 -0.189,0.258 -0.415,0.343 0.225,0.088 0.376,0.199 0.411,0.347 0.036,0.148 -0.046,0.315 -0.205,0.498 0.241,-0.029 0.426,0.001 0.525,0.115 0.101,0.114 0.106,0.301 0.05,0.537 0.199,-0.137 0.376,-0.197 0.518,-0.142 0.143,0.053 0.234,0.216 0.291,0.454 0.114,-0.215 0.243,-0.353 0.396,-0.368 0.148,-0.02 0.307,0.084 0.466,0.267 0.002,-0.244 0.053,-0.423 0.181,-0.51 0.124,-0.086 0.311,-0.069 0.537,0.018 -0.11,-0.216 -0.148,-0.398 -0.078,-0.534 0.071,-0.135 0.245,-0.207 0.487,-0.235 -0.199,-0.14 -0.321,-0.283 -0.318,-0.436 -0.001,-0.153 0.119,-0.296 0.321,-0.434 -0.241,-0.03 -0.412,-0.103 -0.484,-0.237 -0.07,-0.135 -0.031,-0.319 0.081,-0.535 -0.229,0.085 -0.413,0.102 -0.538,0.016 -0.126,-0.086 -0.177,-0.267 -0.178,-0.51 -0.158,0.182 -0.316,0.282 -0.468,0.262 -0.152,-0.02 -0.282,-0.154 -0.393,-0.369 z m 0.86,0.106 c 0.679,-0.758 1.446,-3.13 2.224,-5.813 -1.21,2.516 -2.222,4.795 -2.224,5.813 z m 2.223,-5.814 c 0.085,-0.172 0.172,-0.348 0.253,-0.524 -0.03,-0.011 -0.06,-0.024 -0.09,-0.037 -0.054,0.188 -0.108,0.376 -0.163,0.561 z m -1.506,6.308 c 0.953,-0.357 2.736,-2.101 4.671,-4.115 -2.24,1.667 -4.197,3.215 -4.671,4.115 z m 4.671,-4.114 c 0.142,-0.106 0.287,-0.213 0.433,-0.318 -0.021,-0.025 -0.043,-0.047 -0.06,-0.07 -0.124,0.127 -0.247,0.259 -0.373,0.388 z m -4.271,4.887 c 1.01,0.125 3.399,-0.591 6.052,-1.475 -2.761,0.435 -5.212,0.896 -6.052,1.475 z m 6.052,-1.475 c 0.156,-0.022 0.318,-0.048 0.478,-0.073 -0.007,-0.026 -0.013,-0.054 -0.02,-0.081 -0.152,0.051 -0.308,0.103 -0.458,0.154 z m -6.054,2.343 c 0.836,0.583 3.284,1.057 6.038,1.505 -2.642,-0.897 -5.027,-1.627 -6.038,-1.505 z m 6.038,1.505 c 0.135,0.047 0.271,0.095 0.404,0.138 0.007,-0.024 0.013,-0.047 0.018,-0.071 -0.137,-0.02 -0.281,-0.043 -0.422,-0.067 z m -6.446,-0.736 c 0.471,0.902 2.42,2.462 4.649,4.142 -1.924,-2.025 -3.696,-3.78 -4.649,-4.142 z m 4.651,4.139 c 0.083,0.087 0.17,0.179 0.253,0.268 0.014,-0.017 0.027,-0.031 0.043,-0.046 -0.099,-0.074 -0.201,-0.149 -0.296,-0.222 z m -5.366,-3.647 c -0.004,1.019 0.995,3.302 2.191,5.827 -0.764,-2.688 -1.516,-5.066 -2.191,-5.827 z m 2.192,5.827 c 0.03,0.106 0.062,0.215 0.09,0.324 0.021,-0.008 0.036,-0.015 0.055,-0.02 -0.048,-0.102 -0.097,-0.205 -0.145,-0.304 z m -3.056,-5.726 c -0.476,0.902 -0.653,3.386 -0.768,6.178 0.574,-2.733 1.011,-5.188 0.768,-6.178 z m -0.767,6.178 c -0.023,0.106 -0.044,0.214 -0.066,0.323 0.02,0.004 0.035,0.005 0.055,0.007 0.003,-0.108 0.008,-0.222 0.011,-0.33 z m -0.042,-6.489 c -0.844,0.576 -2.154,2.697 -3.553,5.114 1.778,-2.154 3.307,-4.126 3.553,-5.114 z m -3.552,5.114 c -0.074,0.09 -0.152,0.185 -0.229,0.274 0.018,0.012 0.034,0.02 0.053,0.034 0.058,-0.103 0.118,-0.206 0.176,-0.308 z m 2.978,-5.765 c -1.015,0.119 -3.16,1.385 -5.522,2.875 2.577,-1.08 4.843,-2.113 5.522,-2.875 z m -5.522,2.878 c -0.122,0.051 -0.247,0.102 -0.372,0.156 0.009,0.019 0.021,0.038 0.033,0.057 0.114,-0.07 0.227,-0.143 0.339,-0.213 z m 5.315,-3.723 c -0.951,-0.365 -3.441,-0.238 -6.227,-0.016 2.784,0.238 5.273,0.376 6.227,0.016 z m -6.226,-0.016 c -0.151,-0.014 -0.308,-0.028 -0.457,-0.041 -0.001,0.027 -0.003,0.053 -0.001,0.08 0.155,-0.015 0.308,-0.028 0.458,-0.039 z m 6.435,-0.827 c -0.67,-0.763 -2.932,-1.809 -5.499,-2.905 2.351,1.502 4.489,2.783 5.499,2.905 z m -5.499,-2.905 c -0.147,-0.095 -0.297,-0.189 -0.446,-0.285 -0.013,0.026 -0.026,0.053 -0.041,0.078 0.164,0.07 0.329,0.138 0.487,0.207 z m 6.077,2.257 c -0.239,-0.989 -1.758,-2.967 -3.521,-5.132 1.385,2.425 2.683,4.552 3.521,5.132 z m -3.52,-5.132 c -0.095,-0.163 -0.188,-0.329 -0.281,-0.494 -0.026,0.018 -0.055,0.037 -0.079,0.054 0.119,0.147 0.243,0.295 0.36,0.44 z"
                   fill="url(#SvgjsRadialGradient3238)"
                   opacity="1"
                   style="fill:url(#SvgjsRadialGradient3238)" />
                <path
                   id="SvgjsPath3241"
                   d="m 76.255,78.622 c -0.034,-0.004 -0.066,-0.01 -0.1,-0.014 -0.011,0.196 -0.022,0.393 -0.034,0.586 0.043,-0.19 0.09,-0.382 0.134,-0.572 z m -0.135,0.571 c -0.627,2.724 -1.114,5.17 -0.892,6.162 0.496,-0.888 0.722,-3.371 0.892,-6.162 z m -0.891,6.163 c -0.119,0.212 -0.25,0.344 -0.401,0.36 -0.15,0.014 -0.306,-0.091 -0.464,-0.276 -0.006,0.243 -0.06,0.421 -0.188,0.505 -0.128,0.083 -0.313,0.063 -0.539,-0.03 0.107,0.219 0.143,0.403 0.069,0.536 -0.075,0.133 -0.249,0.201 -0.489,0.224 0.194,0.144 0.312,0.289 0.308,0.441 -0.003,0.152 -0.126,0.292 -0.327,0.428 0.24,0.034 0.41,0.111 0.478,0.247 0.067,0.136 0.025,0.318 -0.091,0.532 0.229,-0.081 0.414,-0.093 0.537,-0.003 0.123,0.088 0.17,0.27 0.164,0.514 0.166,-0.177 0.325,-0.278 0.478,-0.253 0.148,0.02 0.274,0.16 0.382,0.379 0.064,-0.236 0.16,-0.396 0.306,-0.447 0.143,-0.051 0.318,0.014 0.515,0.157 -0.051,-0.237 -0.041,-0.423 0.063,-0.536 0.104,-0.113 0.29,-0.136 0.532,-0.102 -0.157,-0.187 -0.238,-0.356 -0.195,-0.504 0.039,-0.148 0.192,-0.255 0.423,-0.336 -0.226,-0.091 -0.372,-0.206 -0.407,-0.354 -0.032,-0.149 0.053,-0.316 0.218,-0.495 -0.243,0.023 -0.427,-0.009 -0.524,-0.125 -0.099,-0.115 -0.102,-0.303 -0.039,-0.538 -0.201,0.134 -0.38,0.19 -0.521,0.132 -0.147,-0.056 -0.236,-0.219 -0.288,-0.456 z m 0.804,0.327 c 0.852,-0.558 2.206,-2.65 3.652,-5.04 -1.82,2.117 -3.387,4.056 -3.652,5.04 z m 3.652,-5.042 c 0.126,-0.145 0.255,-0.292 0.38,-0.44 -0.027,-0.019 -0.052,-0.04 -0.078,-0.06 -0.101,0.169 -0.202,0.336 -0.302,0.5 z m -3.088,5.704 c 1.013,-0.099 3.187,-1.322 5.577,-2.767 -2.596,1.031 -4.887,2.02 -5.577,2.767 z m 5.576,-2.766 c 0.165,-0.065 0.333,-0.131 0.501,-0.195 -0.014,-0.029 -0.029,-0.056 -0.04,-0.083 -0.153,0.091 -0.306,0.186 -0.461,0.278 z m -5.39,3.615 c 0.943,0.382 3.437,0.309 6.227,0.142 -2.779,-0.294 -5.265,-0.483 -6.227,-0.142 z m 6.227,0.142 c 0.158,0.019 0.32,0.036 0.48,0.053 0.001,-0.027 0.002,-0.055 0.003,-0.083 -0.161,0.01 -0.325,0.02 -0.483,0.03 z m -6.452,0.697 c 0.655,0.78 2.898,1.871 5.442,3.017 -2.321,-1.551 -4.435,-2.873 -5.442,-3.017 z M 82,91.049 c 0.117,0.08 0.236,0.161 0.354,0.238 0.013,-0.021 0.024,-0.042 0.035,-0.063 C 82.262,91.168 82.129,91.109 82,91.049 Z M 75.964,88.67 c 0.221,0.993 1.699,3.004 3.419,5.205 -1.335,-2.456 -2.592,-4.609 -3.419,-5.205 z m 3.42,5.202 c 0.059,0.106 0.117,0.217 0.176,0.325 0.018,-0.013 0.034,-0.023 0.053,-0.034 -0.077,-0.098 -0.155,-0.196 -0.229,-0.291 z M 75.146,88.96 c -0.267,0.982 0.107,3.447 0.608,6.195 -0.043,-2.794 -0.153,-5.285 -0.608,-6.195 z m 0.608,6.195 c 0.002,0.11 0.004,0.224 0.004,0.337 0.021,-0.003 0.038,-0.005 0.058,-0.005 -0.02,-0.111 -0.041,-0.223 -0.062,-0.332 z m -1.469,-6.321 c -0.693,0.748 -1.508,3.102 -2.341,5.769 1.261,-2.493 2.321,-4.75 2.341,-5.769 z m -2.341,5.769 c -0.05,0.096 -0.099,0.195 -0.147,0.295 0.017,0.008 0.032,0.013 0.051,0.021 0.031,-0.104 0.065,-0.212 0.096,-0.316 z m 1.64,-6.279 c -0.964,0.338 -2.779,2.048 -4.756,4.021 2.276,-1.621 4.263,-3.13 4.756,-4.021 z m -4.756,4.021 c -0.095,0.067 -0.194,0.138 -0.29,0.206 0.014,0.016 0.027,0.028 0.041,0.045 0.082,-0.085 0.167,-0.168 0.249,-0.251 z m 4.369,-4.799 c -1.01,-0.148 -3.409,0.521 -6.078,1.349 2.77,-0.377 5.226,-0.789 6.078,-1.349 z m -6.078,1.351 c -0.131,0.018 -0.265,0.034 -0.4,0.054 0.005,0.021 0.011,0.042 0.018,0.063 0.128,-0.037 0.256,-0.078 0.382,-0.117 z m 6.098,-2.22 c -0.824,-0.599 -3.263,-1.121 -6.01,-1.627 2.626,0.95 4.995,1.727 6.01,1.627 z m -6.01,-1.627 c -0.143,-0.052 -0.29,-0.106 -0.432,-0.158 -0.008,0.026 -0.016,0.051 -0.021,0.077 0.153,0.026 0.306,0.053 0.453,0.081 z m 6.43,0.867 c -0.45,-0.911 -2.363,-2.506 -4.561,-4.23 1.883,2.06 3.617,3.851 4.561,4.23 z m -4.561,-4.229 c -0.118,-0.13 -0.236,-0.26 -0.355,-0.391 -0.021,0.022 -0.041,0.044 -0.061,0.065 0.14,0.109 0.281,0.218 0.416,0.326 z m 5.287,3.752 c 0.024,-1.017 -0.93,-3.321 -2.073,-5.868 0.709,2.701 1.414,5.091 2.073,5.868 z M 72.29,79.572 c -0.049,-0.182 -0.096,-0.366 -0.144,-0.55 -0.029,0.01 -0.062,0.021 -0.09,0.032 0.078,0.173 0.158,0.347 0.234,0.518 z"
                   fill="url(#SvgjsRadialGradient3242)"
                   opacity="1"
                   style="fill:url(#SvgjsRadialGradient3242)" />
                <path
                   id="SvgjsPath3245"
                   d="m 78.334,87 c 0,1.842 -1.492,3.333 -3.333,3.333 -1.841,0 -3.335,-1.492 -3.335,-3.333 0,-1.841 1.494,-3.334 3.335,-3.334 1.843,0 3.333,1.493 3.333,3.334 z"
                   fill="#4d3623"
                   stroke-width="none"
                   opacity="1"
                   stroke="none" />
                <path
                   id="SvgjsPath3246"
                   d="m 78.334,87 c 0,1.842 -1.492,3.333 -3.333,3.333 -1.841,0 -3.335,-1.492 -3.335,-3.333 0,-1.841 1.494,-3.334 3.335,-3.334 1.843,0 3.333,1.493 3.333,3.334 z"
                   fill="#000000"
                   stroke-width="none"
                   opacity="0.9" />
                <path
                   id="SvgjsPath3247"
                   d="m 70.35,90.893 c 0.636,-0.427 1.5,-0.255 1.927,0.38 0.427,0.637 0.258,1.5 -0.379,1.927 -0.638,0.429 -1.5,0.258 -1.927,-0.378 -0.427,-0.637 -0.258,-1.502 0.379,-1.929 z"
                   fill="url(#SvgjsLinearGradient3248)"
                   opacity="0.5"
                   style="fill:url(#SvgjsLinearGradient3248)" />
                <path
                   id="SvgjsPath3251"
                   d="m 77.635,86.536 c -0.356,0.53 -1.373,0.468 -2.275,-0.136 -0.903,-0.605 -1.346,-1.526 -0.991,-2.055 l 0.001,-0.001 c 0.354,-0.53 1.372,-0.469 2.274,0.137 0.903,0.604 1.346,1.524 0.992,2.054 -10e-4,0.001 -10e-4,0.001 -10e-4,0.001 z"
                   fill="url(#SvgjsLinearGradient3252)"
                   opacity="0.5"
                   style="fill:url(#SvgjsLinearGradient3252)" />
                <path
                   id="SvgjsPath3255"
                   d="m 81.682,85.121 c -0.806,1.237 -2.884,1.31 -4.641,0.166 -1.756,-1.145 -2.527,-3.075 -1.722,-4.311 0.806,-1.235 2.884,-1.31 4.641,-0.166 1.755,1.146 2.525,3.077 1.722,4.311 z"
                   fill="url(#SvgjsLinearGradient3256)"
                   opacity="0.75"
                   style="fill:url(#SvgjsLinearGradient3256)" />
              </g>
            </g>
          </g>
          <g
             id="svga-group-eyesfront-left">
            <path
               id="SvgjsPath4223"
               d="m 56,88 c 0,13.808 8.06,24.999 18,24.999 9.94,0 18,-11.191 18,-24.999 C 92,74.191 83.94,62.999 74,62.999 64.06,62.999 56,74.191 56,88 Z m 3.78,-4.47 c 3.715,-0.277 11.349,-0.597 14.89,-0.154 4.952,0.619 10.04,2.6 12.788,5.71 -2.289,1.82 -5.897,2.705 -8.395,3.143 -4.31,0.755 -7.656,0.71 -10.688,-0.204 C 65.249,91.083 61.188,87.2 59.78,83.53 Z"
               fill="#f2aa92"
               stroke-width="none"
               opacity="1" />
            <path
               id="SvgjsPath4224"
               d="m 56.143,86.915 c 0.027,8.284 8.484,14.962 18.902,14.919 10.414,-0.047 18.836,-6.796 18.813,-15.08 C 93.831,78.469 85.372,71.791 74.956,71.834 64.539,71.881 56.119,78.63 56.143,86.915 Z M 59.78,83.53 c 3.715,-0.277 11.349,-0.597 14.89,-0.154 4.952,0.619 10.04,2.6 12.788,5.71 -2.289,1.82 -5.897,2.705 -8.395,3.143 -4.31,0.755 -7.656,0.71 -10.688,-0.204 C 65.249,91.083 61.188,87.2 59.78,83.53 Z"
               fill="url(#SvgjsRadialGradient4225)"
               opacity="1"
               style="fill:url(#SvgjsRadialGradient4225)" />
            <path
               id="SvgjsPath4229"
               d="m 59.78,83.53 c 3.715,-0.277 11.349,-0.597 14.89,-0.154 4.952,0.619 10.04,2.6 12.788,5.71 -2.289,1.82 -5.897,2.705 -8.395,3.143 -4.31,0.755 -7.656,0.71 -10.688,-0.204 C 65.249,91.083 61.188,87.2 59.78,83.53 Z"
               fill="url(#SvgjsRadialGradient4230)"
               opacity="1"
               style="fill:url(#SvgjsRadialGradient4230)" />
            <path
               id="SvgjsPath4233"
               d="m 67.363,79.695 c 6.133,-0.278 8.613,0.088 12.986,1.384 1.662,0.602 1.852,0.772 2.555,1.214 C 79.119,80.256 68.83,79.641 67.363,79.695 Z m -7.967,7.057 c 2.854,5.494 4.797,4.894 7.531,6.058 0.025,0.009 -1.51,-0.579 -2.664,-1.196 -2.99,-1.719 -3.355,-2.451 -4.867,-4.862 z"
               fill="#c45e3b"
               stroke-width="none"
               opacity="1" />
            <path
               id="SvgjsPath4234"
               d="m 56,81.734 c 3.096,2.525 4.363,5.953 7.398,8.529 2.037,1.729 5.877,2.717 9.602,2.773 3.844,0.058 8.59,-0.434 10.258,-0.855 C 86.096,91.463 86.797,90.903 90,90.709 88.014,87.67 86.164,86.31 83.732,84.868 80.755,83.104 78.658,82.589 75.013,82.304 70.16,81.924 56,81.734 56,81.734 Z m 4.705,2.092 c 3.467,-0.258 10.59,-0.557 13.895,-0.144 4.621,0.577 9.369,2.426 11.934,5.328 -2.137,1.699 -5.504,2.524 -7.834,2.933 -4.021,0.705 -7.145,0.663 -9.973,-0.19 -2.918,-0.879 -6.707,-4.502 -8.022,-7.927 z"
               fill="#000000"
               stroke-width="none"
               opacity="1" />
          </g>
        </g>
        <g
           id="svga-group-eyes-right">
          <g
             id="svga-group-eyesback-right">
            <path
               id="SvgjsPath4206"
               d="m 120.937,92.229 c 4.31,0.755 7.656,0.71 10.688,-0.204 3.127,-0.943 7.188,-4.825 8.596,-8.495 -3.715,-0.277 -11.349,-0.597 -14.89,-0.154 -4.688,0.586 -9.474,2.406 -12.305,5.236 0.016,0.294 0.053,0.583 0.087,0.872 2.285,1.547 5.521,2.341 7.824,2.745 z"
               fill="url(#SvgjsRadialGradient4207)"
               opacity="1"
               style="fill:url(#SvgjsRadialGradient4207)" />
          </g>
          <g
             id="svga-group-eyesiriswrapper-right"
             transform="translate(1,0.5)">
            <g
               id="svga-group-eyesiriscontrol-right">
              <g
                 id="svga-group-eyesiris-right">
                <path
                   id="SvgjsPath3259"
                   d="m 133.5,87 c 0,4.694 -3.806,8.5 -8.499,8.5 -4.694,0 -8.501,-3.806 -8.501,-8.5 v 0 c 0,-4.694 3.807,-8.5 8.501,-8.5 4.693,-0.001 8.499,3.805 8.499,8.5 z"
                   fill="#4d3623"
                   stroke-width="none"
                   opacity="1"
                   stroke="none" />
                <path
                   id="SvgjsPath3260"
                   d="m 124.048,78.595 c -0.033,0.004 -0.066,0.008 -0.101,0.012 0.041,0.191 0.081,0.384 0.12,0.575 -0.007,-0.195 -0.012,-0.393 -0.019,-0.587 z m 0.018,0.585 c 0.099,2.793 0.262,5.282 0.732,6.183 0.249,-0.986 -0.173,-3.443 -0.732,-6.183 z m 0.734,6.185 c -0.061,0.236 -0.153,0.397 -0.294,0.452 -0.142,0.053 -0.319,-0.008 -0.521,-0.146 0.058,0.236 0.052,0.422 -0.051,0.537 -0.102,0.114 -0.285,0.142 -0.527,0.11 0.16,0.184 0.242,0.353 0.206,0.5 -0.039,0.148 -0.189,0.258 -0.415,0.343 0.225,0.088 0.376,0.199 0.411,0.347 0.036,0.148 -0.046,0.315 -0.205,0.498 0.241,-0.029 0.426,0.001 0.525,0.115 0.101,0.114 0.106,0.301 0.05,0.537 0.199,-0.137 0.376,-0.197 0.518,-0.142 0.143,0.053 0.234,0.216 0.291,0.454 0.114,-0.215 0.243,-0.353 0.396,-0.368 0.148,-0.02 0.307,0.084 0.466,0.267 0.002,-0.244 0.053,-0.423 0.181,-0.51 0.124,-0.086 0.311,-0.069 0.537,0.018 -0.11,-0.216 -0.148,-0.398 -0.078,-0.534 0.071,-0.135 0.245,-0.207 0.487,-0.235 -0.199,-0.14 -0.321,-0.283 -0.318,-0.436 -0.001,-0.153 0.119,-0.296 0.321,-0.434 -0.241,-0.03 -0.412,-0.103 -0.484,-0.237 -0.07,-0.135 -0.031,-0.319 0.081,-0.535 -0.229,0.085 -0.413,0.102 -0.538,0.016 -0.126,-0.086 -0.177,-0.267 -0.178,-0.51 -0.158,0.182 -0.316,0.282 -0.468,0.262 -0.152,-0.02 -0.282,-0.154 -0.393,-0.369 z m 0.86,0.106 c 0.679,-0.758 1.446,-3.13 2.224,-5.813 -1.21,2.516 -2.222,4.795 -2.224,5.813 z m 2.223,-5.814 c 0.085,-0.172 0.172,-0.348 0.253,-0.524 -0.03,-0.011 -0.06,-0.024 -0.09,-0.037 -0.054,0.188 -0.108,0.376 -0.163,0.561 z m -1.506,6.308 c 0.953,-0.357 2.736,-2.101 4.671,-4.115 -2.24,1.667 -4.197,3.215 -4.671,4.115 z m 4.671,-4.114 c 0.142,-0.106 0.287,-0.213 0.433,-0.318 -0.021,-0.025 -0.043,-0.047 -0.06,-0.07 -0.124,0.127 -0.247,0.259 -0.373,0.388 z m -4.271,4.887 c 1.01,0.125 3.399,-0.591 6.052,-1.475 -2.761,0.435 -5.212,0.896 -6.052,1.475 z m 6.052,-1.475 c 0.156,-0.022 0.318,-0.048 0.478,-0.073 -0.007,-0.026 -0.013,-0.054 -0.02,-0.081 -0.152,0.051 -0.308,0.103 -0.458,0.154 z m -6.054,2.343 c 0.836,0.583 3.284,1.057 6.038,1.505 -2.642,-0.897 -5.027,-1.627 -6.038,-1.505 z m 6.038,1.505 c 0.135,0.047 0.271,0.095 0.404,0.138 0.007,-0.024 0.013,-0.047 0.018,-0.071 -0.137,-0.02 -0.281,-0.043 -0.422,-0.067 z m -6.446,-0.736 c 0.471,0.902 2.42,2.462 4.649,4.142 -1.924,-2.025 -3.696,-3.78 -4.649,-4.142 z m 4.651,4.139 c 0.083,0.087 0.17,0.179 0.253,0.268 0.014,-0.017 0.027,-0.031 0.043,-0.046 -0.099,-0.074 -0.201,-0.149 -0.296,-0.222 z m -5.366,-3.647 c -0.004,1.019 0.995,3.302 2.191,5.827 -0.764,-2.688 -1.516,-5.066 -2.191,-5.827 z m 2.192,5.827 c 0.03,0.106 0.062,0.215 0.09,0.324 0.021,-0.008 0.036,-0.015 0.055,-0.02 -0.048,-0.102 -0.097,-0.205 -0.145,-0.304 z m -3.056,-5.726 c -0.476,0.902 -0.653,3.386 -0.768,6.178 0.574,-2.733 1.011,-5.188 0.768,-6.178 z m -0.767,6.178 c -0.023,0.106 -0.044,0.214 -0.066,0.323 0.02,0.004 0.035,0.005 0.055,0.007 0.003,-0.108 0.008,-0.222 0.011,-0.33 z m -0.042,-6.489 c -0.844,0.576 -2.154,2.697 -3.553,5.114 1.778,-2.154 3.307,-4.126 3.553,-5.114 z m -3.552,5.114 c -0.074,0.09 -0.152,0.185 -0.229,0.274 0.018,0.012 0.034,0.02 0.053,0.034 0.058,-0.103 0.118,-0.206 0.176,-0.308 z m 2.978,-5.765 c -1.015,0.119 -3.16,1.385 -5.522,2.875 2.577,-1.08 4.843,-2.113 5.522,-2.875 z m -5.522,2.878 c -0.122,0.051 -0.247,0.102 -0.372,0.156 0.009,0.019 0.021,0.038 0.033,0.057 0.114,-0.07 0.227,-0.143 0.339,-0.213 z m 5.315,-3.723 c -0.951,-0.365 -3.441,-0.238 -6.227,-0.016 2.784,0.238 5.273,0.376 6.227,0.016 z m -6.226,-0.016 c -0.151,-0.014 -0.308,-0.028 -0.457,-0.041 -0.001,0.027 -0.003,0.053 -0.001,0.08 0.155,-0.015 0.308,-0.028 0.458,-0.039 z m 6.435,-0.827 c -0.67,-0.763 -2.932,-1.809 -5.499,-2.905 2.351,1.502 4.489,2.783 5.499,2.905 z m -5.499,-2.905 c -0.147,-0.095 -0.297,-0.189 -0.446,-0.285 -0.013,0.026 -0.026,0.053 -0.041,0.078 0.164,0.07 0.329,0.138 0.487,0.207 z m 6.077,2.257 c -0.239,-0.989 -1.758,-2.967 -3.521,-5.132 1.385,2.425 2.683,4.552 3.521,5.132 z m -3.52,-5.132 c -0.095,-0.163 -0.188,-0.329 -0.281,-0.494 -0.026,0.018 -0.055,0.037 -0.079,0.054 0.119,0.147 0.243,0.295 0.36,0.44 z"
                   fill="url(#SvgjsRadialGradient3261)"
                   opacity="1"
                   style="fill:url(#SvgjsRadialGradient3261)" />
                <path
                   id="SvgjsPath3264"
                   d="m 126.255,78.622 c -0.034,-0.004 -0.066,-0.01 -0.1,-0.014 -0.011,0.196 -0.022,0.393 -0.034,0.586 0.043,-0.19 0.09,-0.382 0.134,-0.572 z m -0.135,0.571 c -0.627,2.724 -1.114,5.17 -0.892,6.162 0.496,-0.888 0.722,-3.371 0.892,-6.162 z m -0.891,6.163 c -0.119,0.212 -0.25,0.344 -0.401,0.36 -0.15,0.014 -0.306,-0.091 -0.464,-0.276 -0.006,0.243 -0.06,0.421 -0.188,0.505 -0.128,0.083 -0.313,0.063 -0.539,-0.03 0.107,0.219 0.143,0.403 0.069,0.536 -0.075,0.133 -0.249,0.201 -0.489,0.224 0.194,0.144 0.312,0.289 0.308,0.441 -0.003,0.152 -0.126,0.292 -0.327,0.428 0.24,0.034 0.41,0.111 0.478,0.247 0.067,0.136 0.025,0.318 -0.091,0.532 0.229,-0.081 0.414,-0.093 0.537,-0.003 0.123,0.088 0.17,0.27 0.164,0.514 0.166,-0.177 0.325,-0.278 0.478,-0.253 0.148,0.02 0.274,0.16 0.382,0.379 0.064,-0.236 0.16,-0.396 0.306,-0.447 0.143,-0.051 0.318,0.014 0.515,0.157 -0.051,-0.237 -0.041,-0.423 0.063,-0.536 0.104,-0.113 0.29,-0.136 0.532,-0.102 -0.157,-0.187 -0.238,-0.356 -0.195,-0.504 0.039,-0.148 0.192,-0.255 0.423,-0.336 -0.226,-0.091 -0.372,-0.206 -0.407,-0.354 -0.032,-0.149 0.053,-0.316 0.218,-0.495 -0.243,0.023 -0.427,-0.009 -0.524,-0.125 -0.099,-0.115 -0.102,-0.303 -0.039,-0.538 -0.201,0.134 -0.38,0.19 -0.521,0.132 -0.147,-0.056 -0.236,-0.219 -0.288,-0.456 z m 0.804,0.327 c 0.852,-0.558 2.206,-2.65 3.652,-5.04 -1.82,2.117 -3.387,4.056 -3.652,5.04 z m 3.652,-5.042 c 0.126,-0.145 0.255,-0.292 0.38,-0.44 -0.027,-0.019 -0.052,-0.04 -0.078,-0.06 -0.101,0.169 -0.202,0.336 -0.302,0.5 z m -3.088,5.704 c 1.013,-0.099 3.187,-1.322 5.577,-2.767 -2.596,1.031 -4.887,2.02 -5.577,2.767 z m 5.576,-2.766 c 0.165,-0.065 0.333,-0.131 0.501,-0.195 -0.014,-0.029 -0.029,-0.056 -0.04,-0.083 -0.153,0.091 -0.306,0.186 -0.461,0.278 z m -5.39,3.615 c 0.943,0.382 3.437,0.309 6.227,0.142 -2.779,-0.294 -5.265,-0.483 -6.227,-0.142 z m 6.227,0.142 c 0.158,0.019 0.32,0.036 0.48,0.053 0.001,-0.027 0.002,-0.055 0.003,-0.083 -0.161,0.01 -0.325,0.02 -0.483,0.03 z m -6.452,0.697 c 0.655,0.78 2.898,1.871 5.442,3.017 -2.321,-1.551 -4.435,-2.873 -5.442,-3.017 z M 132,91.049 c 0.117,0.08 0.236,0.161 0.354,0.238 0.013,-0.021 0.024,-0.042 0.035,-0.063 -0.127,-0.056 -0.26,-0.115 -0.389,-0.175 z m -6.036,-2.379 c 0.221,0.993 1.699,3.004 3.419,5.205 -1.335,-2.456 -2.592,-4.609 -3.419,-5.205 z m 3.42,5.202 c 0.059,0.106 0.117,0.217 0.176,0.325 0.018,-0.013 0.034,-0.023 0.053,-0.034 -0.077,-0.098 -0.155,-0.196 -0.229,-0.291 z m -4.238,-4.912 c -0.267,0.982 0.107,3.447 0.608,6.195 -0.043,-2.794 -0.153,-5.285 -0.608,-6.195 z m 0.608,6.195 c 0.002,0.11 0.004,0.224 0.004,0.337 0.021,-0.003 0.038,-0.005 0.058,-0.005 -0.02,-0.111 -0.041,-0.223 -0.062,-0.332 z m -1.469,-6.321 c -0.693,0.748 -1.508,3.102 -2.341,5.769 1.261,-2.493 2.321,-4.75 2.341,-5.769 z m -2.341,5.769 c -0.05,0.096 -0.099,0.195 -0.147,0.295 0.017,0.008 0.032,0.013 0.051,0.021 0.031,-0.104 0.065,-0.212 0.096,-0.316 z m 1.64,-6.279 c -0.964,0.338 -2.779,2.048 -4.756,4.021 2.276,-1.621 4.263,-3.13 4.756,-4.021 z m -4.756,4.021 c -0.095,0.067 -0.194,0.138 -0.29,0.206 0.014,0.016 0.027,0.028 0.041,0.045 0.082,-0.085 0.167,-0.168 0.249,-0.251 z m 4.369,-4.799 c -1.01,-0.148 -3.409,0.521 -6.078,1.349 2.77,-0.377 5.226,-0.789 6.078,-1.349 z m -6.078,1.351 c -0.131,0.018 -0.265,0.034 -0.4,0.054 0.005,0.021 0.011,0.042 0.018,0.063 0.128,-0.037 0.256,-0.078 0.382,-0.117 z m 6.098,-2.22 c -0.824,-0.599 -3.263,-1.121 -6.01,-1.627 2.626,0.95 4.995,1.727 6.01,1.627 z m -6.01,-1.627 c -0.143,-0.052 -0.29,-0.106 -0.432,-0.158 -0.008,0.026 -0.016,0.051 -0.021,0.077 0.153,0.026 0.306,0.053 0.453,0.081 z m 6.43,0.867 c -0.45,-0.911 -2.363,-2.506 -4.561,-4.23 1.883,2.06 3.617,3.851 4.561,4.23 z m -4.561,-4.229 c -0.118,-0.13 -0.236,-0.26 -0.355,-0.391 -0.021,0.022 -0.041,0.044 -0.061,0.065 0.14,0.109 0.281,0.218 0.416,0.326 z m 5.287,3.752 c 0.024,-1.017 -0.93,-3.321 -2.073,-5.868 0.709,2.701 1.414,5.091 2.073,5.868 z m -2.073,-5.868 c -0.049,-0.182 -0.096,-0.366 -0.144,-0.55 -0.029,0.01 -0.062,0.021 -0.09,0.032 0.078,0.173 0.158,0.347 0.234,0.518 z"
                   fill="url(#SvgjsRadialGradient3265)"
                   opacity="1"
                   style="fill:url(#SvgjsRadialGradient3265)" />
                <path
                   id="SvgjsPath3268"
                   d="m 128.334,87 c 0,1.842 -1.492,3.333 -3.333,3.333 -1.841,0 -3.335,-1.492 -3.335,-3.333 0,-1.841 1.494,-3.334 3.335,-3.334 1.843,0 3.333,1.493 3.333,3.334 z"
                   fill="#4d3623"
                   stroke-width="none"
                   opacity="1"
                   stroke="none" />
                <path
                   id="SvgjsPath3269"
                   d="m 128.334,87 c 0,1.842 -1.492,3.333 -3.333,3.333 -1.841,0 -3.335,-1.492 -3.335,-3.333 0,-1.841 1.494,-3.334 3.335,-3.334 1.843,0 3.333,1.493 3.333,3.334 z"
                   fill="#000000"
                   stroke-width="none"
                   opacity="0.9" />
                <path
                   id="SvgjsPath3270"
                   d="m 120.35,90.893 c 0.636,-0.427 1.5,-0.255 1.927,0.38 0.427,0.637 0.258,1.5 -0.379,1.927 -0.638,0.429 -1.5,0.258 -1.927,-0.378 -0.427,-0.637 -0.258,-1.502 0.379,-1.929 z"
                   fill="url(#SvgjsLinearGradient3271)"
                   opacity="0.5"
                   style="fill:url(#SvgjsLinearGradient3271)" />
                <path
                   id="SvgjsPath3274"
                   d="m 127.635,86.536 c -0.356,0.53 -1.373,0.468 -2.275,-0.136 -0.903,-0.605 -1.346,-1.526 -0.991,-2.055 l 0.001,-0.001 c 0.354,-0.53 1.372,-0.469 2.274,0.137 0.903,0.604 1.346,1.524 0.992,2.054 -10e-4,0.001 -10e-4,0.001 -10e-4,0.001 z"
                   fill="url(#SvgjsLinearGradient3275)"
                   opacity="0.5"
                   style="fill:url(#SvgjsLinearGradient3275)" />
                <path
                   id="SvgjsPath3278"
                   d="m 131.682,85.121 c -0.806,1.237 -2.884,1.31 -4.641,0.166 -1.756,-1.145 -2.527,-3.075 -1.722,-4.311 0.806,-1.235 2.884,-1.31 4.641,-0.166 1.755,1.146 2.525,3.077 1.722,4.311 z"
                   fill="url(#SvgjsLinearGradient3279)"
                   opacity="0.75"
                   style="fill:url(#SvgjsLinearGradient3279)" />
              </g>
            </g>
          </g>
          <g
             id="svga-group-eyesfront-right">
            <path
               id="SvgjsPath4244"
               d="m 126,62.999 c -9.94,0 -18,11.193 -18,25.001 0,13.808 8.06,24.999 18,24.999 9.94,0 18,-11.191 18,-24.999 0,-13.809 -8.06,-25.001 -18,-25.001 z m 5.624,29.026 c -3.031,0.914 -6.378,0.959 -10.688,0.204 -2.497,-0.438 -6.105,-1.323 -8.395,-3.143 2.748,-3.11 7.836,-5.091 12.788,-5.71 3.541,-0.443 11.175,-0.123 14.89,0.154 -1.407,3.67 -5.468,7.553 -8.595,8.495 z"
               fill="#f2aa92"
               stroke-width="none"
               opacity="1" />
            <path
               id="SvgjsPath4245"
               d="m 125.045,71.834 c -10.416,-0.043 -18.875,6.635 -18.902,14.92 -0.023,8.284 8.398,15.033 18.813,15.08 10.418,0.043 18.875,-6.635 18.902,-14.919 0.023,-8.285 -8.397,-15.034 -18.813,-15.081 z m 6.579,20.191 c -3.031,0.914 -6.378,0.959 -10.688,0.204 -2.497,-0.438 -6.105,-1.323 -8.395,-3.143 2.748,-3.11 7.836,-5.091 12.788,-5.71 3.541,-0.443 11.175,-0.123 14.89,0.154 -1.407,3.67 -5.468,7.553 -8.595,8.495 z"
               fill="url(#SvgjsRadialGradient4246)"
               opacity="1"
               style="fill:url(#SvgjsRadialGradient4246)" />
            <path
               id="SvgjsPath4250"
               d="m 140.22,83.53 c -3.715,-0.277 -11.349,-0.597 -14.89,-0.154 -4.952,0.619 -10.04,2.6 -12.788,5.71 2.289,1.82 5.897,2.705 8.395,3.143 4.31,0.755 7.656,0.71 10.688,-0.204 3.126,-0.942 7.187,-4.825 8.595,-8.495 z"
               fill="url(#SvgjsRadialGradient4251)"
               opacity="1"
               style="fill:url(#SvgjsRadialGradient4251)" />
            <path
               id="SvgjsPath4254"
               d="m 117.096,82.293 c 0.703,-0.442 0.893,-0.613 2.555,-1.214 4.373,-1.295 6.854,-1.662 12.986,-1.384 -1.467,-0.054 -11.756,0.561 -15.541,2.598 z m 18.64,9.321 c -1.154,0.617 -2.689,1.205 -2.664,1.196 2.734,-1.164 4.678,-0.564 7.531,-6.058 -1.511,2.411 -1.876,3.143 -4.867,4.862 z"
               fill="#c45e3b"
               stroke-width="none"
               opacity="1" />
            <path
               id="SvgjsPath4255"
               d="m 124.986,82.304 c -3.645,0.285 -5.742,0.8 -8.719,2.564 -2.432,1.441 -4.281,2.802 -6.268,5.841 3.203,0.193 3.904,0.754 6.742,1.472 1.668,0.421 6.414,0.913 10.258,0.855 3.725,-0.056 7.564,-1.044 9.602,-2.773 3.035,-2.576 4.303,-6.003 7.398,-8.529 0.001,0 -14.159,0.19 -19.013,0.57 z m 6.287,9.449 c -2.828,0.853 -5.951,0.895 -9.973,0.19 -2.33,-0.409 -5.697,-1.234 -7.834,-2.933 2.564,-2.902 7.313,-4.751 11.934,-5.328 3.305,-0.413 10.428,-0.114 13.895,0.144 -1.315,3.425 -5.104,7.048 -8.022,7.927 z"
               fill="#000000"
               stroke-width="none"
               opacity="1" />
          </g>
        </g>
        <g
           id="svga-group-facehighlight-single">
          <path
             id="SvgjsPath2753"
             d="m 140.204,113.007 c 0.035,22.275 -17.995,40.365 -40.273,40.396 C 77.657,153.439 59.57,135.41 59.535,113.131 59.501,90.857 77.53,72.77 99.808,72.735 c 22.275,-0.034 40.363,17.995 40.396,40.272 z"
             fill="url(#SvgjsRadialGradient2754)"
             opacity="1"
             style="fill:url(#SvgjsRadialGradient2754)" />
          <path
             id="SvgjsPath2757"
             d="m 135,55.999 c 0,19.329 -15.671,35 -35,35 -19.329,0 -35,-15.671 -35,-35 0,-19.329 15.671,-35 35,-35 19.329,0 35,15.671 35,35 z"
             fill="url(#SvgjsRadialGradient2758)"
             opacity="1"
             style="fill:url(#SvgjsRadialGradient2758)" />
        </g>
        <g
           id="svga-group-eyebrows-left">
          <path
             id="SvgjsPath3234"
             d="m 54,73.189 c 9.954,-9.974 16.761,-4.714 30.589,-2.063 0.845,0.162 6.32,0.337 5.31,2.268 -0.483,0.924 -2.036,0.814 -2.903,0.798 C 73.308,73.936 66.652,64.197 54,73.189 Z"
             fill="#2a232b"
             stroke-width="none"
             opacity="1" />
        </g>
        <g
           id="svga-group-eyebrows-right">
          <path
             id="SvgjsPath3235"
             d="m 144.519,73.494 c -12.071,-9.095 -19.137,0.037 -31.727,0.388 -4.076,0.116 -3.813,-2.101 -2.078,-2.451 2.014,-0.407 2.563,0.033 8.451,-1.382 11.342,-2.725 17.181,-5.221 25.354,3.445 z"
             fill="#2a232b"
             stroke-width="none"
             opacity="1" />
        </g>
        <g
           id="svga-group-nose-single">
          <path
             id="SvgjsPath3577"
             d="m 99.044,91.436 c 0,0 -0.827,19.066 -0.713,23.254 0.032,1.188 2.32,4.304 2.164,6.575 0,0 -4.462,-0.325 -5.914,-0.838 -1.519,-0.538 -3.869,-1.588 -2.94,-4.521 1.323,-4.171 7.403,-24.47 7.403,-24.47 z"
             fill="#e38e72"
             stroke-width="none"
             opacity="1"
             stroke="none" />
          <path
             id="SvgjsPath3578"
             d="m 98.627,119.026 c 0,0 -1.851,-0.657 -3.02,-0.624 -1.064,0.033 -1.218,-0.676 -1.11,-1.079 0.108,-0.403 0.473,-0.654 1.501,-0.38 1.029,0.276 2.629,2.083 2.629,2.083 z m 2.755,0.002 c 0,0 1.847,-0.609 3.02,-0.622 1.064,-0.013 1.219,-0.677 1.11,-1.079 -0.108,-0.404 -0.473,-0.657 -1.501,-0.383 -1.029,0.278 -2.629,2.084 -2.629,2.084 z"
             fill="#c45e3b"
             stroke-width="none"
             opacity="1"
             stroke="none" />
        </g>
        <g
           id="svga-group-hair-front">
          <path
             id="SvgjsPath3656"
             d="m 137.933,141.731 c 16.512,-55.946 -2.844,-86.784 -5.085,-96.474 -0.461,-1.994 -2.839,-7.675 -2.839,-7.675 -8.857,-4.884 -13.91,-5.96 -24.344,-5.96 -7.02,0 -10.784,0.161 -17.606,2.384 -7.164,7.132 -27.936,32.674 -36.394,51.778 4.185,15.866 6.826,68.128 4.833,72.716 -15.408,0.498 -9.962,-129.099 -9.962,-129.099 5.36,0 103.2,-4.161 108.719,-4.161 0,0.001 5.888,114.61 -17.322,116.491 z"
             fill="#2a232b"
             stroke-width="none"
             opacity="0.1" />
          <path
             id="SvgjsPath3657"
             d="m 129.421,235.813 c 7.562,-15.873 5.54,-26.495 3.584,-36.774 -1.463,-7.688 -2.978,-15.637 -0.401,-25.709 -0.845,-13.438 2.629,-24.662 6.307,-36.547 7.017,-22.68 14.97,-48.384 -6.036,-96.463 l -0.026,-0.062 -0.061,-0.033 C 123.931,35.341 113.733,32.76 103.3,32.76 c -7.02,0 -14.039,1.127 -20.861,3.351 -7.164,7.132 -24.063,29.375 -32.521,48.479 0.245,3.976 0.862,8.197 1.927,13.381 4.34,21.321 4.5,38.71 4.654,55.53 0.23,25.185 0.45,48.987 15.491,81.027 -1.855,-1.622 -3.654,-3.18 -5.397,-4.688 -18.63,-16.117 -30.938,-26.765 -34.354,-51.049 l -0.398,0.021 c 0,0 -0.33,9.248 -0.47,13.14 C 21.141,141.693 19.924,101.158 25.877,60.5 30.869,26.402 62.752,-6.334 88.302,-6.334 c 5.36,0 10.53,0.952 15.365,2.83 l 0.073,0.028 0.072,-0.029 c 6.084,-2.401 11.969,-3.619 17.488,-3.619 16.125,0 29.904,7.554 39.849,27.521 11.614,23.322 17.796,59.631 16.534,97.126 -1.229,36.535 -9.174,68.096 -21.295,84.732 0.656,-3.462 0.867,-5.002 1.26,-8.908 l -0.388,-0.089 c -7.468,20.085 -17.243,30.866 -26.698,41.292 -0.38,0.424 -0.762,0.844 -1.141,1.263 z"
             fill="#2a232b"
             stroke-width="none"
             opacity="1" />
          <path
             id="SvgjsPath3658"
             d="m 50.023,86.038 c 0.295,3.558 0.885,7.374 1.822,11.934 4.341,21.321 4.5,38.712 4.654,55.53 0.231,25.185 0.45,48.987 15.491,81.027 -1.855,-1.623 -3.654,-3.18 -5.397,-4.688 -9.569,-8.279 -17.466,-15.118 -23.351,-23.1 -9.281,-17.978 -12.373,-31.131 -12.373,-60.673 4.5,24.167 5.667,36.329 23.74,60.667 C 36.699,171.857 29.855,120.033 50.023,86.038 Z m 125.479,35.804 C 173.57,134.101 170.613,161.006 166,173 c 2.684,-17.925 2.144,-23.32 2,-41 -4,23 -9.352,50.397 -20,68 3.834,-15.765 7.255,-28.928 7.255,-48.595 -5.053,18.667 -13.773,21.669 -15.255,35.595 3.888,-36.515 20.87,-75.267 3.842,-113.642 5.986,28.08 0.275,46.59 -4.933,63.424 -3.679,11.885 -7.15,23.11 -6.308,36.547 -2.574,10.071 -1.061,18.021 0.402,25.709 1.956,10.28 3.979,20.901 -3.584,36.773 0.379,-0.419 0.76,-0.839 1.143,-1.261 9.455,-10.426 19.23,-21.207 26.698,-41.292 l 0.388,0.089 c -0.393,3.906 -0.604,5.446 -1.26,8.908 11.641,-15.977 17.426,-45.72 19.114,-80.413 z M 37.27,72.427 c -2.445,5.423 -6.514,62.265 -3.284,74.552 0.046,0.17 -0.056,-0.172 -0.268,-0.912 -4.901,-15.835 0.726,-68.465 3.552,-73.64 z m -8.275,77.231 c 0.151,1.726 0.322,2.77 0.297,2.562 -0.132,-0.51 -1.95,-44.056 -1.492,-44.315 0.1,-0.021 0.069,0.018 0.102,0.025 -1.07,0.285 -0.127,28.786 1.093,41.728 z m 132.818,-16.343 c -1.464,16.704 -5.294,35.469 -2.028,18.988 5.737,-27.943 7.126,-52.795 0.201,-80.288 2.879,13.749 4.79,24.585 1.827,61.3 z"
             fill="#1b141c"
             stroke-width="none"
             opacity="1" />
          <path
             id="SvgjsPath3659"
             d="m 127,29 c 16.888,6.402 32,75 26,115 10.155,-44 7.566,-81.265 -11,-119 16.968,27.907 24.125,38.909 26.371,82.435 3.32,-19.596 2.846,-43.368 -0.37,-69.895 -2.007,-6.258 -4.298,-12.015 -6.852,-17.143 -9.943,-19.967 -23.722,-27.521 -39.847,-27.521 -5.521,0 -11.403,1.218 -17.489,3.619 l -0.071,0.029 -0.073,-0.028 C 98.834,-5.382 93.664,-6.334 88.304,-6.334 75.72,-6.334 61.2,1.94 49.302,14.243 32.418,39.738 27.122,71.139 28,101 29,77 41,53 56,35 45,61 37,88 36,116 42,77 71.469,27.735 94,20 c 6.9,-2.369 15.467,-1.286 17.615,6.42 1.188,1.846 1.794,4.125 1.385,6.58 1.407,-1.126 2.791,-1.964 4.165,-2.536 3.339,-2.641 6.943,-2.56 9.835,-1.464 z"
             fill="#322c33"
             stroke-width="none"
             opacity="1" />
          <path
             id="SvgjsPath3660"
             d="m 113,33 c 1,-6 -5,-11.6 -10,-11.6 -8.118,0 -16.148,7.781 -21.182,15.339 0.212,-0.22 0.42,-0.433 0.619,-0.63 6.822,-2.224 13.841,-3.351 20.861,-3.351 10.435,0 20.63,2.582 29.488,7.465 l 0.06,0.033 0.027,0.062 c 0.054,0.123 0.102,0.24 0.152,0.362 -0.271,-3.492 -4.157,-7.681 -6.063,-9.05 -4.998,-3 -9.081,-3.222 -13.962,1.37 z"
             fill="#0c080c"
             stroke-width="none"
             opacity="1" />
          <path
             id="SvgjsPath3661"
             d="m 123.605,15.551 c 14.693,2.885 21.418,18.935 25.36,33.284 0.721,2.709 -6.705,-28.88 -25.36,-33.284 z M 167.8,60.71 C 165.179,39.1 156.251,17.059 137.312,6.332 163.85,22.934 168.197,63.544 167.8,60.71 Z M 91.438,18.545 C 93.356,18.119 79.053,19.766 68.06,33.581 60.896,42.291 54.502,55.567 51.922,60.741 59.841,44.582 73.947,22.662 91.438,18.545 Z M 75.803,6.583 C 59.858,11.72 49.913,23.31 44.498,37.629 55.194,12.346 80.312,5.185 75.803,6.583 Z M 111.399,5.315 C 107.242,-3.4 99.008,-7.734 86.591,-6.171 c 12.168,-0.83 20.242,4.56 23.477,11.712 -6.828,-7.43 -19.214,1.181 -18.223,0.847 0.978,-0.692 13.933,-4.741 18.745,0.193 2.196,4.651 3.396,10.396 3.765,16.96 0.41,8.729 0.354,-4.552 -0.186,-8.375 -0.458,-3.457 -1.292,-6.551 -2.495,-9.251 4.005,-5.099 11.348,-5.508 17.675,-2.897 l 0.041,-0.091 c -6.237,-3.149 -15.333,-3.206 -17.991,2.388 z"
             fill="#2a232b"
             stroke-width="none"
             opacity="1" />
          <path
             id="SvgjsPath3662"
             d="m 114.04,32.379 c 5.321,-4.434 12.993,-3.73 18.039,6.7 l 0.61,1.32 c 31.857,72.917 -2.776,93.617 -0.28,132.88 -6.107,23.896 10.536,35.066 -3.79,63.72 9.811,-10.893 20.781,-22.021 28.83,-43.67 -0.429,4.271 -0.652,5.762 -1.42,9.75 38.854,-51.466 30.84,-240.344 -52.29,-206.77 -26.87,-12.574 -69.464,14.093 -78.06,64.16 -7.504,43.708 -3.863,86.184 5.83,133.16 0.025,-0.661 0.53,-14.811 0.53,-14.811 3.785,26.906 18.251,36.949 40.54,56.49 -25.454,-53.516 -9.508,-83.19 -20.54,-137.379 -0.9,-4.38 -1.64,-8.8 -1.94,-13.26 8.343,-18.843 25.079,-41.048 32.4,-48.37 l 1.21,-1.21 c 0.099,-0.095 5.39,-5.147 5.63,-5.37 8.201,-3.25 17.274,-4.018 22.341,3.593 -3.037,-7.992 -13.058,-8.04 -20.73,-5.043 8.445,-7.445 18.682,-10.292 22.191,4.081 0.103,0.419 0.082,1.196 0.082,1.196 0,0 0.442,-0.854 0.817,-1.167 z m 61.037,85.682 c -0.38,12.364 -2.541,54.771 -17.658,82.27 1.066,-4.51 1.76,-8.328 2.021,-12.801 4.745,-14.82 5.854,-26.1 6.028,-27.1 -5.55,27.37 -15.529,51.351 -34.619,73.569 13.535,-29.831 -2.641,-35.97 1.67,-59.33 0.967,11.022 4.291,21.701 7.739,32.05 0.49,-9.871 2.533,-21.996 7.271,-30.71 -1.799,2.479 -7.063,14.054 -7.93,26.21 -14.464,-50.55 5.344,-49.98 8.17,-108.66 2.604,21.148 -0.119,28.44 -0.119,28.44 5.72,-19.17 0.543,-32.426 -0.826,-43.12 C 145.131,65.663 136.469,44.702 135.17,41.889 130.305,31.72 122.973,25.386 114.04,31.499 105.666,7.341 84.746,30.936 78.581,37.709 c -8.888,9.765 -22.52,28.087 -29.211,44.29 0,0.01 -0.01,0.02 -0.01,0.03 -4.833,11.717 -6.102,20.844 -7.32,28.84 2.306,-11.387 4.596,-18.222 7.43,-24.77 0.18,3.31 0.57,6.61 1.08,9.87 8.997,57.645 -6.818,82.899 20.06,136.78 -34.449,-32.043 -38.365,-41.664 -39.7,-80.58 -0.238,24.988 0.937,10.513 -0.14,30.7 -5.768,-39.082 -10.682,-67.553 -2.5,-118.52 9.267,-57.727 52.276,-77.212 75.43,-67.42 30.296,-12.349 48.97,5.949 61.2,35.04 2.775,6.604 10.469,37.291 5.6,62.41 0,0 2.195,-6.328 3.66,-18.7 1.405,13.628 1.345,28.448 0.917,42.382 z"
             fill="#000000"
             stroke-width="none"
             opacity="1" />
        </g>
        <g
           id="svga-group-glasses-single">
          <path
             id="SvgjsPath3170"
             d="m 143.62,100.1 c -2.36,2.2 -6.23,3.04 -13.56,3.04 -9.78,0 -16.18,-1.09 -20.41,-9.51 -3.29,-6.54 -4.62,-13.56 -3.02,-15.98 2.21,-3.34 8.57,-5.61 15.67,-6.28 12.33,5.86 20.99,17.61 21.32,28.73 z M 72.01,71.17 c -7.64,0.21 -15.09,2.35 -18.27,7.05 -2.18,3.21 -1.69,12.55 -0.22,16.94 2,5.99 5.07,7.98 16.42,7.98 9.78,0 16.18,-1.09 20.41,-9.51 0.42,-0.84 0.81,-1.69 1.17,-2.54 C 88.29,82.95 81.16,75.43 72.01,71.17 Z"
             fill="#ffffff"
             stroke-width="none"
             opacity="0.2" />
          <path
             id="SvgjsPath3171"
             d="m 146.48,95.17 c -0.71,2.12 -1.56,3.73 -2.86,4.94 -0.33,-11.12 -8.99,-22.87 -21.33,-28.74 9.37,-0.89 19.99,0.99 23.97,6.86 2.18,3.21 1.69,12.54 0.22,16.94 z M 93.38,77.65 c -2.79,-4.23 -12.22,-6.73 -21.37,-6.47 9.16,4.25 16.28,11.77 19.52,19.92 2.41,-5.74 3.24,-11.34 1.85,-13.45 z"
             fill="#ffffff"
             stroke-width="none"
             opacity="0.4" />
          <path
             id="SvgjsPath3172"
             d="m 151.79,73.61 c -10.18,-5.46 -36.14,-7.01 -45.5,0.15 -0.8,0.47 -4.23,-0.53 -6.29,-0.53 -1.95,0 -5.42,1.05 -6.29,0.53 -9.36,-7.16 -35.32,-5.61 -45.5,-0.15 -1.46,0.79 -1.62,4.51 -0.35,5.08 0.91,0.41 1.51,0.98 1.46,1.98 -0.32,5.62 1.23,12.92 1.91,14.93 0.87,2.59 2.44,7.41 9.29,8.6 5.83,1.01 16.43,1.48 21.94,-0.17 9.99,-2.98 14.24,-18.04 14.42,-23.17 l 0.01,0.02 c 0.4,-1.8 5.82,-1.8 6.23,0 l 0.01,-0.02 c 0.17,5.13 4.43,20.19 14.42,23.17 5.51,1.65 16.11,1.18 21.94,0.17 6.85,-1.19 8.42,-6.01 9.29,-8.6 0.68,-2.02 2.23,-9.31 1.92,-14.93 -0.05,-1 0.56,-1.57 1.46,-1.98 1.25,-0.57 1.09,-4.29 -0.37,-5.08 z m -70.38,27.75 c -5.06,1.51 -14.32,1.61 -19.71,0.67 C 57.16,101.24 55.26,98.77 54,95 52.52,90.6 52.13,81.49 54.16,78.5 c 6.76,-9.98 33.87,-8.05 38.8,-0.58 2.2,3.35 -2.07,20.61 -11.55,23.44 z M 146,95.01 c -1.26,3.77 -3.17,6.24 -7.7,7.03 -5.39,0.94 -14.65,0.84 -19.71,-0.67 -9.48,-2.83 -13.75,-20.09 -11.55,-23.44 4.93,-7.47 32.04,-9.4 38.8,0.58 2.03,2.98 1.64,12.1 0.16,16.5 z"
             fill="#26120b"
             stroke-width="none"
             opacity="1" />
          <path
             id="SvgjsPath3173"
             d="m 118.58,101.32 c 2.79,0.83 6.86,1.24 10.85,1.27 -12.54,1.22 -15.39,-3.4 -17.12,-5.16 -3.52,-3.59 -5.69,-8.95 -5.85,-16.65 0.03,6.08 4.3,18.21 12.12,20.54 z M 93.69,73.72 C 84.33,66.56 58.37,68.1 48.19,73.57 71.43,67.05 84.93,70.42 93.69,73.72 Z M 61.68,102 c -4.54,-0.79 -6.44,-3.26 -7.7,-7.03 -1.32,-3.93 -1.77,-11.62 -0.4,-15.35 -1.83,4.22 -1.12,12.39 0.26,16.5 1.6,4.8 4.54,7.18 17.34,6.46 -3.47,0.07 -6.93,-0.14 -9.5,-0.58 z m 91.29,-25.7 c -0.04,-1.13 -0.45,-2.32 -1.2,-2.73 -9.98,-5.36 -35.14,-6.94 -44.93,-0.25 13.16,-5.27 32.13,-6.01 46.13,2.98 z"
             fill="#351d15"
             stroke-width="none"
             opacity="1" />
        </g>
      </g>
    </g>
    <rect
       id="SvgjsRect1033"
       width="200"
       height="15"
       x="0"
       y="185"
       fill="#ecf0f1"
       opacity="0.5"
       style="display:none" />
    <text
       id="SvgjsText1034"
       font-family="&quot;Roboto&quot;, &quot;Helvetica Neue&quot;, Helvetica, Arial, sans-serif"
       style="font-weight:400;font-size:10.08px;font-family:Roboto, 'Helvetica Neue', Helvetica, Arial, sans-serif;text-anchor:middle;display:none"
       font-size="0.84em"
       text-anchor="middle"
       font-weight="400"
       fill="#000000"
       x="100"
       y="185"><tspan
         id="SvgjsTspan1035"
         dy="1.2em"
         x="100"
         style="font-weight:400;font-size:8.4672px;font-family:Roboto, 'Helvetica Neue', Helvetica, Arial, sans-serif;text-anchor:middle">Created on Cartoonize.net</tspan></text>
  </g>
  <defs
     id="SvgjsDefs1001">
    <radialGradient
       id="SvgjsRadialGradient2754"
       cx="100"
       cy="113"
       r="40"
       gradientUnits="userSpaceOnUse"
       class="svga-on-canvas-facehighlight-gradient-single-0">
      <stop
         id="SvgjsStop2755"
         stop-opacity="0.5"
         stop-color="#ffc6b3"
         offset="0" />
      <stop
         id="SvgjsStop2756"
         stop-opacity="0"
         stop-color="#f2aa92"
         offset="0.9" />
    </radialGradient>
    <radialGradient
       id="SvgjsRadialGradient2758"
       cx="100"
       cy="57"
       r="36"
       gradientUnits="userSpaceOnUse"
       class="svga-on-canvas-facehighlight-gradient-single-1">
      <stop
         id="SvgjsStop2759"
         stop-opacity="0.5"
         stop-color="#ffc6b3"
         offset="0" />
      <stop
         id="SvgjsStop2760"
         stop-opacity="0"
         stop-color="#f2aa92"
         offset="0.9" />
    </radialGradient>
    <radialGradient
       id="SvgjsRadialGradient3238"
       cx="-558.588"
       cy="-490.918"
       r="84.646"
       gradientTransform="matrix(0.096,-0.0248,0.0245,0.0961,140.5478,120.3577)"
       gradientUnits="userSpaceOnUse"
       class="svga-on-canvas-eyesiris-gradient-left-1">
      <stop
         id="SvgjsStop3239"
         stop-opacity="0.8"
         stop-color="#ffffff"
         offset="0" />
      <stop
         id="SvgjsStop3240"
         stop-opacity="0"
         stop-color="#ffffff"
         offset="1" />
    </radialGradient>
    <radialGradient
       id="SvgjsRadialGradient3242"
       cx="-565.337"
       cy="-492.691"
       r="84.644"
       gradientTransform="matrix(0.0991,8.856325e-4,-0.0011,0.0991,130.3774,136.3533)"
       gradientUnits="userSpaceOnUse"
       class="svga-on-canvas-eyesiris-gradient-left-2">
      <stop
         id="SvgjsStop3243"
         stop-opacity="0.8"
         stop-color="#ffffff"
         offset="0" />
      <stop
         id="SvgjsStop3244"
         stop-opacity="0"
         stop-color="#ffffff"
         offset="1" />
    </radialGradient>
    <linearGradient
       id="SvgjsLinearGradient3248"
       x1="122.283"
       y1="93.047"
       x2="123.61"
       y2="91.466"
       gradientTransform="translate(-52)"
       gradientUnits="userSpaceOnUse"
       class="svga-on-canvas-eyesiris-gradient-left-5">
      <stop
         id="SvgjsStop3249"
         stop-opacity="1"
         stop-color="#ffffff"
         offset="0" />
      <stop
         id="SvgjsStop3250"
         stop-opacity="0"
         stop-color="#ffffff"
         offset="1" />
    </linearGradient>
    <linearGradient
       id="SvgjsLinearGradient3252"
       x1="127"
       y1="85"
       x2="125"
       y2="87"
       gradientTransform="translate(-50)"
       gradientUnits="userSpaceOnUse"
       class="svga-on-canvas-eyesiris-gradient-left-6">
      <stop
         id="SvgjsStop3253"
         stop-opacity="1"
         stop-color="#ffffff"
         offset="0" />
      <stop
         id="SvgjsStop3254"
         stop-opacity="0"
         stop-color="#ffffff"
         offset="1" />
    </linearGradient>
    <linearGradient
       id="SvgjsLinearGradient3256"
       x1="130"
       y1="81"
       x2="126"
       y2="85"
       gradientTransform="translate(-50)"
       gradientUnits="userSpaceOnUse"
       class="svga-on-canvas-eyesiris-gradient-left-7">
      <stop
         id="SvgjsStop3257"
         stop-opacity="1"
         stop-color="#ffffff"
         offset="0" />
      <stop
         id="SvgjsStop3258"
         stop-opacity="0"
         stop-color="#ffffff"
         offset="1" />
    </linearGradient>
    <radialGradient
       id="SvgjsRadialGradient3261"
       cx="-578.76"
       cy="-490.73"
       r="84.646"
       gradientTransform="matrix(0.096,-0.0248,0.0245,0.0961,192.4794,119.8404)"
       gradientUnits="userSpaceOnUse"
       class="svga-on-canvas-eyesiris-gradient-right-1">
      <stop
         id="SvgjsStop3262"
         stop-opacity="0.8"
         stop-color="#ffffff"
         offset="0" />
      <stop
         id="SvgjsStop3263"
         stop-opacity="0"
         stop-color="#ffffff"
         offset="1" />
    </radialGradient>
    <radialGradient
       id="SvgjsRadialGradient3265"
       cx="-584.778"
       cy="-487.329"
       r="84.644"
       gradientTransform="matrix(0.0991,8.856325e-4,-0.0011,0.0991,182.3104,135.839)"
       gradientUnits="userSpaceOnUse"
       class="svga-on-canvas-eyesiris-gradient-right-2">
      <stop
         id="SvgjsStop3266"
         stop-opacity="0.8"
         stop-color="#ffffff"
         offset="0" />
      <stop
         id="SvgjsStop3267"
         stop-opacity="0"
         stop-color="#ffffff"
         offset="1" />
    </radialGradient>
    <linearGradient
       id="SvgjsLinearGradient3271"
       x1="120.284"
       y1="93.047"
       x2="121.611"
       y2="91.467"
       gradientUnits="userSpaceOnUse"
       class="svga-on-canvas-eyesiris-gradient-right-5">
      <stop
         id="SvgjsStop3272"
         stop-opacity="1"
         stop-color="#ffffff"
         offset="0" />
      <stop
         id="SvgjsStop3273"
         stop-opacity="0"
         stop-color="#ffffff"
         offset="1" />
    </linearGradient>
    <linearGradient
       id="SvgjsLinearGradient3275"
       x1="127"
       y1="85"
       x2="125"
       y2="87"
       gradientUnits="userSpaceOnUse"
       class="svga-on-canvas-eyesiris-gradient-right-6">
      <stop
         id="SvgjsStop3276"
         stop-opacity="1"
         stop-color="#ffffff"
         offset="0" />
      <stop
         id="SvgjsStop3277"
         stop-opacity="0"
         stop-color="#ffffff"
         offset="1" />
    </linearGradient>
    <linearGradient
       id="SvgjsLinearGradient3279"
       x1="130"
       y1="81"
       x2="126"
       y2="85"
       gradientUnits="userSpaceOnUse"
       class="svga-on-canvas-eyesiris-gradient-right-7">
      <stop
         id="SvgjsStop3280"
         stop-opacity="1"
         stop-color="#ffffff"
         offset="0" />
      <stop
         id="SvgjsStop3281"
         stop-opacity="0"
         stop-color="#ffffff"
         offset="1" />
    </linearGradient>
    <radialGradient
       id="SvgjsRadialGradient4199"
       cx="127"
       cy="87.834"
       r="14"
       gradientTransform="matrix(-1,0,0,1,200,0)"
       gradientUnits="userSpaceOnUse"
       class="svga-on-canvas-eyesback-gradient-left-0">
      <stop
         id="SvgjsStop4200"
         stop-opacity="1"
         stop-color="#ffffff"
         offset="0" />
      <stop
         id="SvgjsStop4201"
         stop-opacity="1"
         stop-color="#fdfefe"
         offset="0.544" />
      <stop
         id="SvgjsStop4202"
         stop-opacity="1"
         stop-color="#f6f8f9"
         offset="0.74" />
      <stop
         id="SvgjsStop4203"
         stop-opacity="1"
         stop-color="#eaeff2"
         offset="0.879" />
      <stop
         id="SvgjsStop4204"
         stop-opacity="1"
         stop-color="#d9e3e8"
         offset="0.992" />
      <stop
         id="SvgjsStop4205"
         stop-opacity="1"
         stop-color="#d8e2e7"
         offset="1" />
    </radialGradient>
    <radialGradient
       id="SvgjsRadialGradient4207"
       cx="127"
       cy="87.834"
       r="14"
       gradientUnits="userSpaceOnUse"
       class="svga-on-canvas-eyesback-gradient-right-0">
      <stop
         id="SvgjsStop4208"
         stop-opacity="1"
         stop-color="#ffffff"
         offset="0" />
      <stop
         id="SvgjsStop4209"
         stop-opacity="1"
         stop-color="#fdfefe"
         offset="0.544" />
      <stop
         id="SvgjsStop4210"
         stop-opacity="1"
         stop-color="#f6f8f9"
         offset="0.74" />
      <stop
         id="SvgjsStop4211"
         stop-opacity="1"
         stop-color="#eaeff2"
         offset="0.879" />
      <stop
         id="SvgjsStop4212"
         stop-opacity="1"
         stop-color="#d9e3e8"
         offset="0.992" />
      <stop
         id="SvgjsStop4213"
         stop-opacity="1"
         stop-color="#d8e2e7"
         offset="1" />
    </radialGradient>
    <radialGradient
       id="SvgjsRadialGradient4215"
       cx="127"
       cy="87.834"
       r="14"
       gradientTransform="matrix(-1 0 0 1 200 0)"
       gradientUnits="userSpaceOnUse"
       class="svga-on-canvas-eyesfront-gradient-left-0">
      <stop
         id="SvgjsStop4216"
         stop-opacity="1"
         stop-color="#ffffff"
         offset="0" />
      <stop
         id="SvgjsStop4217"
         stop-opacity="1"
         stop-color="#fdfefe"
         offset="0.544" />
      <stop
         id="SvgjsStop4218"
         stop-opacity="1"
         stop-color="#f6f8f9"
         offset="0.74" />
      <stop
         id="SvgjsStop4219"
         stop-opacity="1"
         stop-color="#eaeff2"
         offset="0.879" />
      <stop
         id="SvgjsStop4220"
         stop-opacity="1"
         stop-color="#d9e3e8"
         offset="0.992" />
      <stop
         id="SvgjsStop4221"
         stop-opacity="1"
         stop-color="#d8e2e7"
         offset="1" />
    </radialGradient>
    <radialGradient
       id="SvgjsRadialGradient4225"
       cx="125.16"
       cy="86.942"
       fx="138.734"
       fy="85.449"
       r="18.705"
       gradientTransform="matrix(0.9998,0.0208,0.0131,-0.6281,-51.4298,138.9481)"
       gradientUnits="userSpaceOnUse"
       class="svga-on-canvas-eyesfront-gradient-left-3">
      <stop
         id="SvgjsStop4226"
         stop-opacity="1"
         stop-color="#e38e72"
         offset="0" />
      <stop
         id="SvgjsStop4227"
         stop-opacity="0.3"
         stop-color="#e38e72"
         offset="0.7" />
      <stop
         id="SvgjsStop4228"
         stop-opacity="0"
         stop-color="#f2aa92"
         offset="1" />
    </radialGradient>
    <radialGradient
       id="SvgjsRadialGradient4230"
       cx="67.721"
       cy="109.165"
       r="29.505"
       gradientTransform="matrix(1.0322,-0.0541,0.0541,1.0322,-5.8613,6.0176)"
       gradientUnits="userSpaceOnUse"
       class="svga-on-canvas-eyesfront-gradient-left-4">
      <stop
         id="SvgjsStop4231"
         stop-opacity="0"
         stop-color="#000000"
         offset="0.95" />
      <stop
         id="SvgjsStop4232"
         stop-opacity="0.3"
         stop-color="#000000"
         offset="1" />
    </radialGradient>
    <radialGradient
       id="SvgjsRadialGradient4236"
       cx="127"
       cy="87.834"
       r="14"
       gradientUnits="userSpaceOnUse"
       class="svga-on-canvas-eyesfront-gradient-right-0">
      <stop
         id="SvgjsStop4237"
         stop-opacity="1"
         stop-color="#ffffff"
         offset="0" />
      <stop
         id="SvgjsStop4238"
         stop-opacity="1"
         stop-color="#fdfefe"
         offset="0.544" />
      <stop
         id="SvgjsStop4239"
         stop-opacity="1"
         stop-color="#f6f8f9"
         offset="0.74" />
      <stop
         id="SvgjsStop4240"
         stop-opacity="1"
         stop-color="#eaeff2"
         offset="0.879" />
      <stop
         id="SvgjsStop4241"
         stop-opacity="1"
         stop-color="#d9e3e8"
         offset="0.992" />
      <stop
         id="SvgjsStop4242"
         stop-opacity="1"
         stop-color="#d8e2e7"
         offset="1" />
    </radialGradient>
    <radialGradient
       id="SvgjsRadialGradient4246"
       cx="125.16"
       cy="86.942"
       fx="138.734"
       fy="85.449"
       r="18.705"
       gradientTransform="matrix(-0.9998,0.0208,-0.0131,-0.6281,251.4298,138.9481)"
       gradientUnits="userSpaceOnUse"
       class="svga-on-canvas-eyesfront-gradient-right-3">
      <stop
         id="SvgjsStop4247"
         stop-opacity="1"
         stop-color="#e38e72"
         offset="0" />
      <stop
         id="SvgjsStop4248"
         stop-opacity="0.3"
         stop-color="#e38e72"
         offset="0.7" />
      <stop
         id="SvgjsStop4249"
         stop-opacity="0"
         stop-color="#f2aa92"
         offset="1" />
    </radialGradient>
    <radialGradient
       id="SvgjsRadialGradient4251"
       cx="67.721"
       cy="109.165"
       r="29.506"
       gradientTransform="matrix(-1.0322,-0.0541,-0.0541,1.0322,205.8613,6.0176)"
       gradientUnits="userSpaceOnUse"
       class="svga-on-canvas-eyesfront-gradient-right-4">
      <stop
         id="SvgjsStop4252"
         stop-opacity="0"
         stop-color="#000000"
         offset="0.95" />
      <stop
         id="SvgjsStop4253"
         stop-opacity="0.3"
         stop-color="#000000"
         offset="1" />
    </radialGradient>
    <linearGradient
       id="SvgjsLinearGradient4260"
       x1="99.98"
       y1="171.27"
       x2="99.98"
       y2="136.351"
       gradientUnits="userSpaceOnUse"
       class="svga-on-canvas-chinshadow-gradient-single-0">
      <stop
         id="SvgjsStop4261"
         stop-opacity="0.8"
         stop-color="#e38e72"
         offset="0" />
      <stop
         id="SvgjsStop4262"
         stop-opacity="1"
         stop-color="#c45e3b"
         offset="0.7" />
    </linearGradient>
    <linearGradient
       id="SvgjsLinearGradient4322"
       x1="100"
       y1="141"
       x2="100"
       y2="138"
       gradientUnits="userSpaceOnUse"
       class="svga-on-canvas-mouth-gradient-single-0">
      <stop
         id="SvgjsStop4323"
         stop-opacity="1"
         stop-color="#ea9c82"
         offset="0.1" />
      <stop
         id="SvgjsStop4324"
         stop-opacity="1"
         stop-color="#e38e72"
         offset="1" />
    </linearGradient>
  </defs>
</svg>
